<?xml version="1.0" standalone="no"?>
<!DOCTYPE svg PUBLIC "-//W3C//DTD SVG 20010904//EN"
 "http://www.w3.org/TR/2001/REC-SVG-20010904/DTD/svg10.dtd">
<svg version="1.0" xmlns="http://www.w3.org/2000/svg"
 width="300.000000pt" height="300.000000pt" viewBox="0 0 300.000000 300.000000"
 preserveAspectRatio="xMidYMid meet">
<metadata>
Created by potrace 1.14, written by Peter Selinger 2001-2017
</metadata>
<g transform="translate(0.000000,300.000000) scale(0.100000,-0.100000)"
fill="#000000" stroke="none">
<path d="M1137 2993 c-4 -7 -16 -10 -27 -8 -11 2 -20 0 -20 -6 0 -5 -5 -9 -11
-9 -5 0 -7 6 -3 13 6 9 5 9 -8 0 -8 -7 -18 -10 -21 -7 -3 3 -11 2 -18 -2 -12
-7 -33 -11 -86 -16 -35 -3 -16 -12 27 -14 23 -1 37 3 34 8 -4 6 3 5 14 -1 30
-16 36 -14 21 7 -13 15 -12 16 3 3 10 -7 15 -18 12 -23 -4 -6 1 -8 14 -4 28 9
40 -13 17 -31 -16 -11 -17 -13 -3 -13 9 0 20 5 23 10 4 6 11 8 17 4 6 -4 8 3
6 16 -2 16 -11 24 -28 27 -31 5 -46 19 -20 19 11 0 20 -3 20 -6 0 -4 7 -7 15
-7 8 0 15 7 15 15 0 8 6 12 13 9 46 -19 50 -20 43 -9 -3 6 -1 14 5 18 8 4 9 3
5 -4 -4 -7 -2 -12 3 -12 6 0 11 4 11 8 0 5 14 8 30 8 17 0 30 -3 30 -6 0 -4 7
-7 15 -7 8 0 15 4 15 9 0 5 6 6 13 1 16 -11 77 -12 77 -1 0 4 -17 9 -37 9
-128 5 -191 3 -187 -3 3 -5 1 -8 -5 -8 -5 0 -11 5 -13 12 -3 9 -6 9 -11 1z"/>
<path d="M1401 2976 c-11 -13 -11 -19 -1 -31 18 -21 26 -10 9 12 -13 16 -12
17 4 4 11 -9 17 -10 17 -2 0 6 7 11 15 11 8 0 15 -6 15 -12 0 -9 4 -8 11 2 8
12 9 11 5 -6 -5 -14 -2 -21 9 -21 19 0 19 8 2 32 -10 12 -22 16 -40 13 -15 -3
-28 -1 -30 5 -1 5 -9 2 -16 -7z"/>
<path d="M1230 2968 c0 -6 -3 -8 -6 -5 -4 3 -15 2 -25 -4 -13 -6 -25 -6 -38 0
-14 8 -20 7 -24 -2 -4 -10 10 -13 52 -13 48 0 57 3 58 18 1 10 -2 18 -8 18 -5
0 -9 -5 -9 -12z"/>
<path d="M1255 2960 c-2 -3 6 -12 17 -19 18 -11 20 -11 15 1 -3 8 1 15 8 15 8
0 11 -7 7 -16 -5 -14 -4 -14 11 -2 10 8 15 17 11 20 -8 8 -64 9 -69 1z"/>
<path d="M1328 2945 c-10 -13 -26 -22 -35 -20 -10 2 -18 4 -18 5 0 8 -127 4
-132 -3 -11 -18 14 -29 38 -16 25 13 100 23 84 11 -15 -11 -17 -34 -3 -29 7 2
12 10 10 17 -2 11 0 11 11 2 16 -13 50 -5 41 9 -5 9 1 11 36 11 35 0 41 -2 36
-11 -3 -5 1 -12 10 -15 22 -8 26 -8 19 3 -3 5 0 13 6 17 8 4 9 3 5 -4 -4 -7
-2 -12 3 -12 6 0 11 6 11 13 0 9 2 9 8 0 8 -12 25 -16 57 -14 15 1 17 3 6 10
-10 6 -10 10 -1 16 9 6 9 10 -1 17 -11 8 -11 9 1 5 8 -2 13 -12 11 -23 -3 -18
-2 -18 20 1 12 11 19 14 15 7 -6 -9 -1 -11 19 -8 17 3 28 0 32 -10 5 -13 8
-13 15 -2 7 9 8 8 4 -5 -5 -15 -2 -17 17 -12 17 5 19 4 7 -4 -8 -6 -22 -8 -31
-6 -9 3 -16 -1 -16 -10 0 -19 1 -19 39 1 23 12 32 13 38 4 5 -9 9 -9 14 -1 9
14 26 14 26 0 0 -5 -4 -8 -9 -5 -4 3 -16 -3 -26 -14 -10 -11 -13 -20 -7 -20 6
0 14 5 17 10 4 6 15 8 25 5 13 -4 18 -1 16 10 -3 22 -20 36 -47 38 -13 0 -26
5 -29 9 -3 4 -15 9 -25 11 -11 2 -27 7 -36 11 -9 4 -28 8 -43 10 -14 1 -29 6
-33 9 -14 14 -34 7 -29 -10 3 -10 1 -25 -4 -33 -7 -11 -10 -11 -10 -2 0 7 -4
11 -9 7 -6 -3 -15 4 -22 16 l-11 22 -18 -22 -17 -23 -20 26 c-14 18 -23 22
-26 14 -4 -10 -8 -10 -14 -2 -5 8 -13 5 -25 -11z"/>
<path d="M880 2939 c0 -5 -4 -8 -9 -5 -4 3 -16 -1 -27 -8 -10 -8 -25 -11 -33
-8 -10 4 -12 1 -6 -8 6 -10 4 -12 -8 -7 -9 3 -22 1 -29 -6 -7 -7 -17 -12 -23
-12 -17 -1 -95 -39 -95 -47 0 -4 9 -6 19 -5 11 0 17 5 14 11 -4 5 -1 6 7 1 8
-5 11 -4 6 3 -4 7 1 10 14 7 11 -2 18 0 15 5 -3 6 1 7 9 4 8 -3 22 3 32 15 10
11 21 18 26 15 4 -3 17 0 29 7 17 9 24 8 31 -2 8 -11 9 -10 4 3 -3 10 -1 20 5
23 5 4 9 3 8 -2 -3 -20 2 -34 11 -28 6 4 7 11 4 17 -4 6 -2 8 4 5 6 -5 8 0 5
13 -6 21 -13 27 -13 9z"/>
<path d="M906 2926 c2 -15 -2 -26 -12 -30 -8 -3 -12 -11 -9 -17 5 -6 12 -3 21
10 8 11 20 18 27 15 8 -3 13 4 14 17 1 12 -1 19 -4 15 -3 -3 -14 -1 -24 4 -15
9 -17 7 -13 -14z"/>
<path d="M960 2925 c-8 -9 -6 -14 6 -19 23 -9 31 -7 14 4 -8 5 -11 12 -7 17 5
4 12 1 18 -7 8 -13 10 -13 19 0 9 13 11 13 19 0 6 -8 13 -11 17 -7 12 11 -3
20 -40 22 -20 2 -40 -2 -46 -10z"/>
<path d="M1062 2918 c-13 -13 -25 -16 -100 -21 -24 -2 -47 -9 -52 -17 -13 -21
-12 -27 5 -27 10 0 14 7 10 21 -3 12 -2 15 1 8 4 -9 9 -10 19 -2 9 8 15 8 20
0 3 -6 11 -8 16 -5 5 4 9 1 9 -4 0 -6 5 -11 10 -11 6 0 10 7 8 16 -2 10 3 18
10 20 7 1 8 0 2 -3 -5 -2 -7 -9 -4 -14 3 -6 11 -5 20 2 8 6 14 7 14 2 0 -5 6
-10 13 -11 6 -1 24 -3 40 -6 20 -3 27 0 27 12 0 10 3 13 8 7 9 -12 44 -16 36
-4 -3 5 0 9 6 9 7 0 9 -8 4 -22 -6 -20 -5 -21 10 -9 12 10 13 17 6 26 -8 9 -6
14 4 18 10 4 13 1 9 -9 -5 -14 -3 -14 15 -3 32 20 1 34 -35 15 -16 -7 -41 -12
-56 -11 -17 2 -30 -2 -34 -11 -4 -10 -10 -11 -24 -4 -10 6 -16 17 -13 25 4 8
10 12 15 9 5 -3 9 0 9 5 0 15 -13 14 -28 -1z"/>
<path d="M1336 2913 c-5 -15 -14 -20 -32 -18 -30 3 -40 -11 -23 -31 17 -21 25
-8 8 13 -13 16 -12 17 3 5 9 -7 18 -9 20 -5 3 4 3 3 2 -4 -2 -6 4 -14 12 -17
11 -4 14 -1 10 12 -3 9 -1 24 5 32 8 12 9 11 5 -5 -5 -16 -1 -21 14 -21 25 0
25 7 1 37 -18 23 -18 23 -25 2z"/>
<path d="M1376 2915 c4 -11 7 -30 7 -42 -1 -14 4 -20 12 -16 8 2 13 10 11 16
-1 7 -1 9 1 4 3 -4 10 -4 16 0 18 11 38 12 31 2 -3 -5 0 -9 6 -9 7 0 9 7 6 16
-3 9 -6 18 -6 20 0 3 -9 0 -20 -6 -25 -14 -42 -9 -58 15 l-13 20 7 -20z"/>
<path d="M1529 2907 c-12 -10 -30 -15 -40 -12 -14 5 -17 2 -13 -8 7 -20 -13
-32 -30 -18 -7 6 -16 8 -19 4 -12 -12 -7 -21 11 -19 9 0 16 -5 15 -11 -4 -17
9 -16 33 1 10 8 16 18 11 22 -4 4 -7 2 -7 -4 0 -7 -5 -12 -11 -12 -8 0 -8 5 1
15 15 18 32 10 28 -12 -2 -9 2 -18 9 -20 7 -3 11 3 9 14 -2 10 2 30 10 43 7
14 13 19 14 13 0 -7 5 -13 11 -13 5 0 7 4 4 10 -4 6 1 7 11 3 13 -5 15 -3 9 7
-5 8 -4 11 2 7 12 -8 8 -64 -7 -82 -9 -11 -7 -14 10 -12 16 1 20 6 16 22 -5
20 -5 20 9 1 14 -18 20 -15 16 7 -1 5 3 6 8 3 5 -4 11 -1 13 6 3 7 7 5 11 -6
4 -9 3 -15 -2 -12 -5 3 -14 -1 -21 -9 -14 -17 -7 -19 19 -6 13 7 18 6 18 -5 0
-7 -3 -14 -7 -14 -3 0 -6 -9 -7 -19 -1 -13 3 -18 13 -14 7 3 11 10 8 15 -4 6
2 5 14 -1 27 -15 32 -14 26 4 -3 8 -11 13 -16 12 -6 -1 -13 5 -15 13 -3 10 -2
11 4 4 6 -9 11 -8 20 1 8 9 9 15 2 19 -5 2 -4 3 3 2 7 -2 12 -9 10 -16 -1 -6
3 -10 10 -7 7 2 12 10 10 17 -3 11 0 11 12 0 11 -8 16 -9 16 -1 0 6 -5 11 -11
11 -5 0 -7 5 -3 11 3 6 9 7 13 3 8 -12 31 -16 31 -5 0 8 -16 15 -45 19 -5 1
-10 -4 -10 -10 0 -7 -9 -13 -20 -13 -11 0 -26 -4 -32 -8 -19 -12 -37 2 -23 18
8 9 8 15 0 20 -5 3 -10 2 -10 -3 0 -5 -6 -9 -12 -10 -7 0 -22 -2 -33 -4 -17
-2 -20 2 -18 27 2 28 0 31 -27 30 -16 0 -39 -8 -51 -18z"/>
<path d="M833 2882 c1 -13 9 -19 29 -19 22 0 25 3 16 14 -6 7 -13 11 -16 8 -3
-3 -11 0 -18 6 -10 8 -13 6 -11 -9z"/>
<path d="M780 2879 c0 -5 -13 -15 -30 -24 -16 -9 -30 -13 -30 -9 0 4 -7 0 -16
-7 -21 -17 -45 -20 -60 -8 -8 6 -14 4 -18 -6 -3 -9 -10 -14 -15 -11 -5 3 -14
-1 -21 -9 -7 -8 -17 -15 -22 -15 -19 0 -73 -53 -74 -72 -1 -13 3 -17 13 -14 8
3 17 6 19 6 2 0 4 5 4 11 0 5 -4 8 -9 4 -5 -3 -12 -1 -16 4 -3 6 4 8 16 6 15
-3 19 0 15 11 -4 10 -2 13 6 8 7 -5 8 -3 3 6 -6 9 -4 11 5 5 9 -5 11 -4 6 4
-4 6 -4 10 1 9 4 -1 18 3 29 10 12 6 24 8 28 5 3 -3 6 0 6 8 0 8 7 1 15 -14 8
-15 12 -33 9 -40 -3 -8 6 -13 23 -15 26 -2 26 -1 7 13 -19 15 -19 15 1 31 20
16 20 16 -2 11 -13 -3 -26 0 -30 5 -3 7 -1 8 5 4 7 -4 12 -2 12 4 0 6 5 8 12
4 6 -4 17 1 25 11 7 11 13 13 13 7 0 -7 5 -12 11 -12 8 0 7 6 -2 18 -11 14
-11 15 1 5 16 -15 34 -17 25 -4 -3 5 0 13 6 17 8 4 9 3 5 -4 -4 -7 -2 -12 3
-12 6 0 11 6 11 14 0 19 25 27 39 13 11 -11 15 0 9 20 -4 10 -38 11 -38 2z"/>
<path d="M1209 2864 c-21 -23 -25 -24 -36 -9 -6 10 -16 14 -22 10 -21 -12 -54
-14 -74 -4 -16 9 -19 9 -14 -4 3 -8 0 -20 -6 -26 -8 -8 -8 -11 1 -11 6 0 16 8
21 18 7 11 10 13 11 3 0 -9 4 -10 13 -4 14 11 27 11 45 0 7 -5 12 -3 12 4 0 8
4 8 15 -1 8 -7 15 -9 15 -4 0 4 5 3 12 -4 7 -7 16 -12 20 -12 9 0 6 23 -4 30
-4 3 3 12 15 19 20 13 21 13 8 -3 -13 -16 -13 -18 0 -16 26 4 40 0 34 -10 -3
-5 -1 -10 4 -10 18 0 13 15 -12 38 -29 27 -28 27 -58 -4z"/>
<path d="M1546 2879 c2 -4 -2 -9 -8 -11 -7 -3 1 -5 19 -5 19 0 29 5 27 12 -3
6 -13 11 -24 11 -10 0 -17 -3 -14 -7z"/>
<path d="M941 2862 c-8 -15 -18 -19 -38 -16 -15 3 -30 7 -34 10 -14 8 -56 -14
-56 -31 0 -10 6 -14 15 -10 8 3 20 0 28 -6 10 -8 13 -6 11 10 -1 16 -6 20 -22
16 -18 -6 -19 -5 -2 5 11 7 23 8 30 3 15 -11 47 -11 66 1 10 6 12 6 7 -3 -10
-15 25 -11 37 4 5 6 5 0 2 -12 -5 -18 -3 -22 9 -17 9 3 14 10 11 14 -3 5 0 12
6 16 8 5 9 3 4 -6 -6 -10 -4 -12 8 -7 11 4 15 1 12 -13 -2 -11 1 -23 7 -26 7
-5 9 0 6 14 -4 12 -2 24 3 27 15 10 -3 37 -20 29 -30 -12 -56 -11 -67 4 -10
14 -13 13 -23 -6z"/>
<path d="M781 2842 c-14 -26 -14 -42 -1 -22 5 8 10 10 10 4 0 -18 -12 -24 -26
-13 -10 8 -12 6 -11 -10 1 -15 6 -20 17 -15 8 3 20 7 27 7 11 0 12 51 1 63 -4
3 -11 -3 -17 -14z"/>
<path d="M1540 2850 c-8 -5 -11 -10 -6 -10 5 0 3 -6 -3 -13 -6 -8 -7 -18 -3
-22 4 -5 1 -5 -5 -1 -7 4 -13 2 -13 -4 0 -15 35 -8 36 8 3 29 4 32 12 30 4 -2
8 1 10 7 5 14 -10 16 -28 5z"/>
<path d="M1817 2852 c-2 -4 -4 -20 -5 -36 -2 -29 -1 -29 13 -10 15 19 15 19
30 0 11 -14 15 -16 15 -5 0 12 2 12 10 -1 5 -8 10 -10 10 -5 0 6 6 3 13 -6 11
-15 47 -22 47 -10 -1 12 -72 41 -82 35 -7 -5 -9 -2 -5 8 3 10 -3 19 -18 26
-14 6 -26 8 -28 4z m28 -20 c-3 -3 -11 0 -18 7 -9 10 -8 11 6 5 10 -3 15 -9
12 -12z"/>
<path d="M1253 2826 c2 -17 9 -32 17 -34 7 -3 10 0 7 5 -3 5 0 10 8 10 8 0 12
-4 9 -9 -3 -4 0 -8 6 -8 7 0 9 8 5 20 -5 14 -2 20 9 20 9 0 16 5 16 10 0 16
-22 12 -36 -7 -13 -17 -15 -17 -30 2 -15 19 -15 19 -11 -9z"/>
<path d="M1330 2832 c-8 -9 -15 -24 -15 -32 0 -8 -8 -15 -17 -15 -10 0 -22 -5
-28 -11 -12 -12 -3 -44 11 -44 12 0 11 14 -2 27 -9 9 -8 11 2 10 8 -2 19 -6
26 -10 6 -4 14 -3 18 3 3 5 1 10 -5 10 -6 0 -8 5 -4 11 4 8 9 7 16 -2 8 -11 9
-10 4 4 -8 25 3 47 25 47 10 0 19 5 19 10 0 16 -33 10 -50 -8z"/>
<path d="M1389 2843 c-1 -5 -3 -19 -4 -33 -1 -14 -5 -34 -9 -45 -4 -11 2 -4
12 15 15 25 17 37 9 42 -8 5 -6 8 6 8 9 0 17 5 17 10 0 11 -29 14 -31 3z"/>
<path d="M1420 2820 c-7 -16 -11 -32 -10 -36 1 -4 -4 -10 -10 -14 -8 -5 -8
-10 -2 -14 5 -3 15 1 22 9 10 12 10 15 -1 15 -8 1 -3 7 11 15 19 10 28 11 39
2 12 -10 13 -9 7 8 -5 14 -4 17 3 10 6 -6 12 -20 14 -32 3 -25 17 -43 17 -24
0 7 10 10 25 7 13 -3 27 0 30 5 4 5 0 9 -7 9 -9 0 -9 3 2 10 10 7 11 10 2 10
-7 0 -15 -7 -18 -15 -9 -23 -44 0 -41 28 1 15 -3 21 -13 18 -32 -7 -45 -6 -42
7 4 24 -16 11 -28 -18z"/>
<path d="M1786 2835 c-3 -9 -2 -25 4 -34 5 -10 6 -21 3 -25 -3 -3 -1 -6 7 -6
9 0 10 -3 1 -13 -6 -8 -8 -17 -4 -20 3 -4 15 7 26 25 l19 32 13 -24 c7 -12 14
-19 17 -14 6 11 0 -10 -7 -29 -3 -8 3 -13 16 -14 16 -2 18 1 9 12 -14 17 0 26
33 19 20 -3 25 -1 21 9 -3 8 -16 13 -30 11 -18 -2 -24 2 -20 11 3 9 -2 12 -15
10 -11 -2 -22 2 -26 10 -3 8 -9 15 -15 15 -5 0 -7 -4 -4 -9 3 -5 -1 -11 -9
-15 -8 -3 -19 3 -25 14 -6 11 -6 20 0 22 5 2 6 9 1 16 -7 11 -10 10 -15 -3z"/>
<path d="M1104 2829 c-3 -5 -2 -14 2 -20 3 -6 0 -16 -7 -21 -12 -8 -11 -9 1
-5 8 2 14 11 14 20 -1 9 2 14 7 11 5 -3 9 1 9 8 0 8 5 6 11 -4 11 -20 34 -25
24 -5 -4 6 1 3 9 -7 9 -11 16 -14 16 -8 0 7 5 12 10 12 6 0 9 -5 8 -11 -2 -6
3 -14 11 -17 8 -2 11 0 7 6 -3 6 2 16 11 22 17 11 17 11 0 6 -11 -3 -24 -3
-30 1 -7 5 -23 9 -37 9 -14 1 -25 3 -25 4 0 7 -36 6 -41 -1z"/>
<path d="M876 2818 c10 -16 -7 -30 -22 -17 -11 9 -18 8 -32 -4 -9 -9 -20 -16
-25 -16 -24 -2 -57 -14 -57 -22 0 -14 28 -11 33 4 2 6 8 8 13 4 5 -4 2 -12 -6
-17 -8 -6 -10 -10 -5 -10 13 0 43 20 30 20 -5 0 -4 4 3 9 8 4 27 7 43 5 21 -3
28 0 23 8 -5 7 -3 8 6 3 9 -5 11 -4 6 3 -5 8 -2 10 8 6 9 -3 16 -1 16 6 0 6
-4 8 -10 5 -5 -3 -7 0 -4 8 3 8 -1 14 -10 14 -8 0 -13 -4 -10 -9z"/>
<path d="M915 2809 c6 -18 -25 -44 -52 -44 -7 0 -13 -5 -14 -10 -1 -17 18 -17
35 0 9 9 16 12 16 5 0 -6 5 -8 11 -4 8 5 8 1 0 -14 -15 -28 -14 -32 4 -26 8 4
13 10 10 14 -11 17 17 21 40 6 21 -14 24 -14 37 1 11 14 11 16 -3 11 -9 -4
-26 0 -37 7 -10 8 -22 12 -24 9 -3 -3 -8 2 -12 11 -3 9 -2 14 2 11 4 -2 8 6 8
18 1 13 -4 23 -12 23 -9 0 -12 -7 -9 -18z"/>
<path d="M951 2816 c-9 -11 -10 -20 -1 -35 11 -22 26 -30 15 -8 -4 6 1 3 10
-8 16 -20 17 -20 13 4 -4 30 12 36 37 16 19 -15 19 -16 -3 -5 -13 7 -26 9 -30
6 -3 -3 0 -6 7 -6 7 0 10 -4 6 -9 -3 -5 -1 -13 5 -16 8 -5 7 -11 -1 -21 -21
-25 -49 -36 -62 -26 -8 7 -20 6 -36 -2 -17 -10 -20 -15 -11 -21 8 -5 18 -2 25
9 11 15 13 15 19 1 3 -9 10 -13 16 -10 10 6 14 -7 11 -33 -2 -10 2 -10 17 -1
18 11 18 14 5 27 -13 13 -11 18 17 40 25 19 29 27 18 34 -10 7 -9 8 5 4 11 -3
17 0 17 9 0 20 17 27 24 9 3 -8 2 -13 -3 -10 -5 3 -12 -1 -15 -10 -5 -13 -2
-15 11 -9 10 4 28 8 41 8 14 1 21 6 18 14 -3 7 0 15 6 19 7 5 8 2 3 -6 -6 -10
-4 -12 10 -6 14 5 24 0 37 -16 12 -15 16 -17 12 -5 -3 9 -1 17 5 17 6 0 10 -5
8 -11 -1 -6 4 -14 12 -17 8 -2 11 0 7 6 -3 6 -1 14 5 18 8 4 9 3 5 -4 -4 -7
-1 -12 6 -12 9 0 9 -3 2 -8 -22 -15 -11 -39 18 -39 22 0 25 3 17 14 -6 7 -15
10 -19 8 -5 -3 -8 11 -7 31 1 26 -3 38 -13 41 -12 4 -12 3 -2 -5 11 -7 10 -10
-3 -16 -9 -3 -22 -3 -28 1 -7 4 -21 9 -32 10 -11 2 -24 8 -29 13 -5 5 -16 0
-26 -12 -10 -13 -22 -18 -29 -14 -8 5 -9 12 -2 20 6 6 6 18 2 25 -7 10 -13 7
-26 -13 -14 -21 -21 -24 -31 -15 -8 6 -11 16 -7 22 4 7 0 8 -13 3 -21 -8 -24
-9 -42 -7 -7 0 -10 6 -7 11 9 15 -1 12 -14 -4z"/>
<path d="M1755 2820 c-4 -6 -13 -9 -21 -6 -11 4 -12 2 -4 -14 14 -27 13 -29
-17 -28 -16 0 -35 -1 -43 -3 -10 -3 -15 4 -14 21 1 24 -2 25 -53 26 -36 0 -48
-3 -38 -9 8 -4 12 -13 9 -19 -4 -6 -1 -8 7 -6 8 3 13 10 12 15 -1 5 4 10 12
10 8 0 12 -5 8 -10 -3 -5 5 -7 18 -3 13 3 18 3 11 0 -6 -3 -10 -10 -7 -15 4
-5 -2 -6 -11 -2 -12 4 -15 3 -10 -6 5 -7 15 -10 23 -7 9 4 11 2 7 -6 -5 -7 -2
-8 7 -3 8 5 5 -1 -5 -13 -11 -12 -17 -25 -14 -28 3 -3 15 7 27 22 19 24 27 20
22 -9 -1 -5 3 -5 9 -2 6 4 9 13 6 21 -3 7 0 16 6 20 6 4 8 3 4 -4 -9 -15 20
-9 41 10 10 8 24 13 31 11 12 -4 12 -1 2 18 -17 32 -17 32 -25 19z m15 -14 c0
-2 -7 -7 -16 -10 -8 -3 -12 -2 -9 4 6 10 25 14 25 6z"/>
<path d="M1349 2818 c-1 -1 -2 -19 -4 -38 l-3 -35 19 24 c21 25 21 42 1 49 -7
2 -12 2 -13 0z"/>
<path d="M699 2805 c-1 -5 -1 -14 0 -18 1 -4 -6 -10 -14 -13 -8 -4 -15 -10
-15 -16 0 -5 4 -7 9 -4 5 3 11 -1 15 -9 3 -9 -3 -19 -14 -25 -14 -7 -20 -7
-20 0 0 5 -6 9 -12 8 -7 -2 -13 7 -13 19 0 11 -3 24 -6 27 -3 3 -5 -7 -4 -24
2 -35 8 -43 33 -45 9 0 24 -5 31 -10 11 -6 13 -4 8 9 -4 10 -3 15 3 11 6 -3
10 -1 10 6 0 9 3 9 14 0 10 -8 16 -9 21 -1 3 5 2 10 -4 10 -10 0 -8 40 3 58 3
6 2 13 -3 16 -5 4 -13 1 -17 -5 -4 -8 -9 -7 -15 2 -5 8 -9 10 -10 4z m21 -35
c-13 -9 -13 -11 0 -20 8 -5 10 -10 4 -10 -6 0 -17 6 -23 14 -9 11 -9 15 1 19
22 9 34 7 18 -3z"/>
<path d="M1453 2780 c4 -26 10 -30 23 -16 9 10 7 16 -7 24 -16 10 -18 9 -16
-8z"/>
<path d="M574 2763 c-16 -16 -33 -37 -39 -47 -12 -20 -49 -27 -51 -8 -3 25 -5
27 -15 9 -6 -9 -14 -15 -19 -12 -4 3 -6 -4 -3 -15 5 -19 6 -20 19 -3 10 13 13
14 11 3 -2 -8 -2 -11 1 -7 2 4 10 3 18 -4 11 -9 14 -9 14 0 0 7 5 9 10 6 6 -3
10 -2 10 4 0 5 9 13 20 16 11 3 20 11 20 16 0 6 -5 7 -12 3 -7 -4 -8 -3 -4 5
4 6 12 8 18 5 8 -5 9 -1 5 10 -4 9 -3 15 2 11 5 -3 11 1 14 7 3 7 4 3 4 -9 -1
-13 -5 -23 -9 -23 -4 0 -8 -5 -8 -11 0 -6 7 -9 15 -5 18 7 38 -27 24 -41 -6
-6 1 -10 20 -10 17 0 28 4 25 9 -3 5 0 7 8 6 17 -4 38 -30 32 -40 -3 -5 2 -8
10 -8 21 0 20 9 -1 33 -11 12 -12 17 -4 12 8 -5 12 -4 8 1 -3 6 8 10 25 10 18
-1 32 5 34 12 1 7 0 8 -3 2 -2 -5 -9 -10 -15 -10 -7 0 -6 5 1 14 7 8 23 13 37
10 15 -3 23 -1 20 5 -9 14 8 21 24 10 13 -7 13 -9 0 -9 -13 0 -13 -1 0 -10 19
-12 33 -13 25 -1 -3 5 -1 12 4 15 5 4 7 -7 5 -23 -3 -17 0 -32 7 -37 8 -5 9
-3 4 6 -5 9 -4 11 4 6 8 -6 9 -12 2 -20 -17 -20 0 -27 18 -8 9 10 12 12 7 5
-5 -8 -4 -13 2 -13 6 0 16 8 21 18 6 10 11 12 11 4 0 -7 5 -10 11 -7 6 5 4 12
-8 20 -13 9 -22 10 -30 3 -22 -18 -44 9 -32 39 5 14 7 28 4 31 -3 3 -5 1 -5
-5 0 -9 -18 -10 -52 -4 -5 0 -8 8 -8 16 0 12 -5 10 -21 -6 -13 -13 -27 -18
-40 -14 -11 4 -19 3 -18 -2 4 -24 -2 -34 -20 -28 -12 3 -21 0 -25 -10 -3 -10
-11 -13 -18 -9 -17 11 -48 12 -42 2 3 -4 3 -8 0 -8 -10 0 -37 61 -31 70 3 6 2
17 -3 26 -7 13 -13 11 -38 -13z"/>
<path d="M1433 2783 c17 -27 -92 -54 -128 -31 -6 4 -11 -10 -11 -33 -1 -32 1
-37 12 -28 17 14 37 2 30 -18 -4 -9 -1 -13 6 -10 7 2 12 10 11 16 -2 6 2 11 7
11 5 0 10 -6 10 -12 0 -9 4 -8 10 2 15 23 13 26 -26 27 -20 0 -41 6 -47 12 -9
9 -7 10 7 5 15 -6 18 -4 12 7 -4 8 -1 6 7 -4 11 -14 16 -15 21 -5 5 11 7 11
12 0 5 -10 9 -9 20 5 13 17 14 17 8 -2 -5 -18 -3 -17 15 4 12 13 21 19 21 14
0 -5 7 -10 15 -10 17 0 20 13 5 22 -6 4 -8 10 -5 15 3 5 0 12 -6 16 -7 4 -9 3
-6 -3z"/>
<path d="M1581 2772 c-14 -9 -34 -17 -45 -17 -10 0 -21 -5 -23 -11 -2 -6 3
-11 12 -11 8 0 15 5 15 10 0 5 6 4 14 -2 11 -9 15 -9 18 0 2 7 11 13 20 15 11
1 14 -6 12 -30 -1 -23 2 -33 12 -33 9 0 12 7 9 18 -3 9 -1 20 5 24 8 5 4 12
-9 22 -12 8 -19 19 -16 24 8 12 4 11 -24 -9z"/>
<path d="M1745 2760 c-10 -11 -21 -17 -26 -15 -4 3 -10 -4 -14 -15 -3 -11 -13
-20 -22 -20 -10 0 -13 6 -9 17 6 15 4 15 -14 -2 -14 -12 -17 -22 -10 -30 5 -6
7 -15 3 -18 -3 -4 -1 -7 6 -7 8 0 11 8 8 20 -4 17 -2 18 14 9 10 -5 19 -14 19
-20 0 -6 4 -8 9 -4 5 3 12 1 16 -5 3 -5 10 -10 16 -10 5 0 4 9 -3 19 -7 11
-15 18 -19 15 -13 -7 -18 11 -8 26 7 13 9 13 9 0 1 -9 6 -5 15 10 8 14 14 19
15 12 0 -7 4 -11 9 -8 4 3 16 -3 26 -14 10 -11 15 -20 11 -20 -3 0 0 -10 8
-22 14 -22 16 -26 16 -45 0 -5 4 -2 9 6 6 9 4 22 -5 36 -8 12 -12 30 -8 39 4
9 3 16 -2 15 -25 -4 -35 2 -29 20 8 27 -19 34 -40 11z m29 2 c3 -5 -1 -9 -9
-9 -8 0 -12 4 -9 9 3 4 7 8 9 8 2 0 6 -4 9 -8z"/>
<path d="M1140 2755 c-7 -8 -16 -12 -21 -9 -5 3 -9 3 -9 0 0 -2 -3 -13 -7 -23
-6 -15 -4 -16 9 -5 25 20 58 23 65 6 4 -12 8 -12 22 -2 13 10 14 10 4 -2 -19
-21 -15 -32 6 -18 15 9 17 16 10 25 -6 7 -14 12 -17 11 -21 -2 -32 4 -32 17 0
19 -14 19 -30 0z"/>
<path d="M1829 2763 c0 -5 -2 -22 -3 -39 -4 -35 8 -63 21 -50 4 5 2 11 -4 13
-7 3 -13 10 -13 16 0 6 7 5 16 -5 14 -14 14 -18 -1 -47 -14 -28 -14 -33 0 -47
8 -8 15 -14 16 -12 0 2 3 17 5 33 5 29 5 29 -11 10 -16 -20 -16 -20 -5 2 6 13
14 22 18 22 19 -3 26 2 13 10 -9 6 -10 11 -2 15 6 4 11 2 11 -3 0 -6 5 -11 11
-11 5 0 7 4 4 10 -4 6 1 7 12 3 16 -6 16 -5 4 11 -8 9 -10 16 -5 15 5 -1 16
-1 24 0 21 2 -4 24 -32 28 -16 2 -19 0 -9 -6 9 -6 11 -14 4 -26 -7 -11 -13
-14 -17 -7 -4 6 -14 8 -23 5 -13 -5 -15 -2 -10 16 3 13 3 29 0 37 -5 15 -23
19 -24 7z m21 -23 c0 -5 -2 -10 -4 -10 -3 0 -8 5 -11 10 -3 6 -1 10 4 10 6 0
11 -4 11 -10z"/>
<path d="M1950 2764 c0 -3 6 -12 14 -20 11 -10 15 -11 18 -2 3 8 7 6 10 -4 7
-16 -7 -19 -29 -5 -8 5 -11 1 -10 -12 1 -14 8 -19 25 -17 13 2 27 9 32 16 5 8
9 9 14 1 4 -6 3 -11 -3 -11 -18 0 -4 -35 15 -36 10 -1 25 -2 32 -3 6 -1 11 -7
10 -13 -2 -8 5 -12 16 -10 12 2 16 -1 10 -9 -5 -8 -3 -10 6 -4 9 5 11 4 6 -4
-6 -9 -14 -8 -32 4 -13 8 -24 12 -24 8 0 -11 20 -40 20 -29 0 5 6 3 13 -3 8
-6 18 -7 22 -3 5 4 5 1 1 -5 -4 -7 -3 -13 2 -13 5 0 12 9 15 20 4 14 -5 27
-30 47 -19 16 -46 40 -60 55 -14 15 -29 25 -33 23 -5 -3 -11 2 -14 11 -3 8
-10 12 -16 9 -5 -3 -10 -1 -10 4 0 6 -4 11 -10 11 -5 0 -10 -3 -10 -6z"/>
<path d="M1471 2742 c-15 -29 -14 -40 2 -17 10 12 16 14 21 7 4 -7 5 -16 2
-21 -3 -5 5 -8 18 -7 14 0 22 6 19 13 -3 7 -9 11 -13 10 -5 -1 -15 7 -23 17
-14 19 -15 19 -26 -2z"/>
<path d="M1090 2741 c0 -4 -10 -8 -23 -7 -12 0 -35 -9 -51 -22 -16 -12 -24
-22 -18 -22 17 0 21 -26 7 -53 -12 -23 -11 -25 5 -24 13 1 18 8 17 22 -1 12 4
20 13 20 10 0 14 -8 13 -23 -2 -15 1 -21 9 -16 6 4 8 3 5 -3 -3 -5 -16 -9 -29
-8 -13 1 -29 -2 -35 -8 -9 -6 -13 -6 -13 2 0 6 -5 11 -11 11 -5 0 -7 -6 -3
-12 5 -8 0 -7 -11 2 -17 14 -18 13 -12 -4 6 -15 5 -17 -6 -8 -14 12 -27 7 -27
-10 0 -5 5 -6 12 -2 6 4 8 3 5 -4 -14 -22 -57 3 -57 33 0 6 5 3 10 -5 6 -9 10
-10 10 -3 0 7 10 17 21 24 15 8 19 8 15 0 -8 -12 7 -15 18 -4 4 4 15 8 23 8 9
0 18 6 21 14 3 10 0 11 -9 5 -20 -12 -39 -14 -39 -4 0 5 -12 3 -27 -5 -25 -13
-56 -5 -51 13 4 12 -21 50 -36 55 -8 3 -17 0 -20 -8 -3 -9 1 -12 15 -10 11 2
17 0 14 -5 -3 -5 3 -13 12 -19 10 -6 13 -11 7 -11 -5 0 -18 -6 -27 -12 -16
-12 -15 -13 8 -14 15 -1 22 2 18 9 -3 6 -1 7 5 3 8 -5 9 -13 2 -25 -5 -10 -7
-21 -3 -24 3 -4 0 -14 -8 -23 -12 -15 -11 -16 11 -10 19 5 16 2 -9 -12 -19
-11 -43 -17 -53 -14 -10 2 -18 -1 -18 -7 0 -7 5 -9 12 -5 7 5 8 3 3 -5 -5 -10
-10 -10 -19 -1 -8 8 -6 15 9 26 19 15 19 15 -7 12 -28 -4 -51 -18 -30 -18 7 0
12 -5 12 -11 0 -5 -5 -7 -11 -3 -7 4 -10 1 -7 -7 3 -8 11 -13 18 -11 11 3 11
0 1 -12 -14 -17 -36 -11 -25 6 5 8 1 9 -10 5 -10 -4 -20 -7 -22 -7 -2 0 -4 -5
-4 -11 0 -5 4 -8 9 -4 5 3 12 1 16 -4 3 -6 -4 -8 -16 -6 -15 3 -19 0 -15 -11
3 -8 2 -13 -2 -11 -10 5 -51 -40 -43 -49 3 -4 1 -4 -5 -1 -11 6 -37 -14 -31
-24 1 -2 -3 2 -10 9 -7 8 -13 9 -17 3 -4 -5 -1 -13 5 -17 8 -4 1 -16 -19 -34
-17 -15 -28 -30 -25 -34 4 -4 -1 -4 -12 0 -17 7 -18 6 -7 -8 16 -19 -2 -36
-21 -20 -8 7 -18 6 -32 -5 -20 -15 -20 -15 2 -10 31 7 39 -9 12 -23 -12 -7
-19 -8 -16 -2 4 5 -5 14 -19 21 -32 14 -35 14 -28 -4 3 -8 11 -13 17 -12 7 1
11 -8 9 -22 -2 -19 1 -21 11 -12 10 8 14 7 14 -4 0 -8 -5 -11 -10 -8 -6 4 -8
0 -4 -10 4 -10 2 -16 -6 -14 -7 1 -12 -6 -12 -15 0 -9 -4 -20 -9 -25 -5 -4 -7
-3 -3 2 3 6 -3 16 -14 23 -26 16 -24 1 3 -28 17 -18 18 -22 5 -17 -14 5 -16 2
-11 -18 4 -15 2 -25 -5 -25 -6 0 -8 6 -5 13 2 7 -3 13 -14 14 -11 1 -18 -6
-19 -18 -1 -10 1 -18 5 -18 19 3 32 -2 32 -12 0 -5 -4 -8 -9 -4 -5 3 -12 1
-16 -5 -3 -5 0 -10 7 -10 8 0 9 -3 3 -8 -5 -4 -10 -20 -10 -36 0 -21 -5 -30
-18 -32 -25 -3 -28 -7 -17 -24 7 -10 10 -11 10 -2 0 6 5 12 11 12 8 0 8 -4 -1
-15 -6 -8 -9 -19 -5 -26 10 -16 -16 -30 -32 -17 -9 7 -13 7 -13 -1 0 -6 11
-18 25 -27 19 -13 23 -20 14 -30 -6 -7 -8 -18 -4 -24 4 -6 1 -17 -5 -25 -9
-11 -9 -15 -1 -15 11 0 11 -27 -2 -47 -4 -7 -23 -10 -45 -8 -31 3 -38 0 -39
-16 -1 -10 2 -19 8 -19 5 0 9 4 9 9 0 4 15 7 33 7 17 -1 37 4 42 12 9 11 11 9
11 -7 0 -11 -5 -17 -10 -14 -6 4 -6 -1 -1 -13 4 -10 8 -33 8 -51 0 -19 4 -30
10 -26 6 3 7 1 3 -6 -4 -6 -13 -9 -19 -5 -7 3 -2 -3 9 -13 14 -11 20 -26 18
-41 -2 -14 0 -21 6 -17 5 3 10 2 10 -4 0 -5 -4 -13 -10 -16 -6 -3 -10 -11 -10
-17 0 -6 7 -5 17 3 11 10 14 10 9 2 -4 -8 -2 -13 4 -13 6 0 9 -4 5 -9 -3 -5
-1 -12 4 -16 6 -3 7 -13 4 -22 -5 -12 -3 -14 8 -8 11 6 12 5 2 -6 -19 -20 -16
-33 5 -18 14 11 13 10 -2 -9 -20 -23 -10 -31 14 -9 11 9 11 8 0 -7 -14 -18
-13 -19 2 -13 12 4 15 2 11 -9 -3 -8 1 -14 8 -14 11 0 11 -3 -1 -10 -13 -8
-12 -10 3 -10 9 0 17 -4 17 -10 0 -5 12 -21 27 -36 16 -15 21 -22 12 -16 -9 7
-19 9 -22 5 -4 -3 7 -15 24 -25 16 -10 27 -23 24 -28 -3 -6 -1 -10 5 -10 7 0
9 -7 6 -16 -4 -10 -2 -14 6 -11 7 2 12 10 10 16 -1 7 2 10 8 6 6 -3 8 -11 5
-16 -4 -5 1 -12 9 -15 9 -3 13 -10 10 -15 -3 -5 1 -9 9 -9 18 0 63 -51 61 -70
-1 -8 -2 -21 -3 -28 0 -7 -6 -10 -12 -6 -8 4 -7 9 2 15 12 7 12 9 0 9 -10 0
-11 3 -2 14 8 10 9 16 1 21 -9 6 -12 2 -14 -27 -1 -7 -10 -19 -21 -26 -14 -9
-15 -12 -3 -8 9 3 22 -1 28 -9 10 -11 7 -13 -15 -9 -20 3 -25 1 -19 -8 5 -7
10 -21 11 -31 2 -14 -1 -17 -18 -12 -20 7 -20 6 -4 -19 16 -24 16 -26 1 -20
-12 4 -15 2 -10 -9 3 -8 0 -18 -6 -22 -9 -6 -9 -10 1 -16 11 -7 11 -9 1 -9 -7
0 -10 -5 -6 -12 4 -7 3 -8 -4 -4 -7 4 -12 2 -12 -3 0 -6 6 -11 13 -11 6 0 4
-5 -5 -11 -10 -5 -18 -15 -18 -20 0 -6 4 -8 8 -5 4 2 8 -4 8 -14 0 -10 -4 -16
-8 -14 -4 3 -5 -10 -3 -28 3 -18 7 -62 9 -98 6 -88 22 -151 62 -237 32 -71 98
-165 148 -211 56 -51 161 -113 239 -139 l82 -28 539 -3 c347 -1 561 2 600 8
350 61 626 317 712 660 13 52 19 111 19 190 0 139 -6 181 -39 285 -64 199
-203 373 -378 477 -35 20 -75 46 -90 58 -15 12 -33 18 -39 14 -8 -5 -9 -3 -4
6 5 9 2 10 -12 6 -12 -4 -25 -1 -32 8 -7 9 -23 13 -39 10 -20 -3 -23 -2 -12 5
8 5 17 8 21 5 4 -2 7 5 6 16 -1 11 -6 20 -11 20 -5 0 -6 3 -3 7 4 3 1 13 -6
21 -10 13 -9 14 2 8 9 -6 12 -5 9 4 -2 7 -14 15 -26 17 -21 3 -22 2 -7 -21 9
-13 13 -31 9 -41 -6 -14 -4 -16 6 -10 9 5 11 4 6 -4 -4 -6 -12 -9 -17 -6 -5 4
-9 1 -9 -4 0 -19 -18 -12 -25 9 -4 11 -11 18 -16 14 -5 -3 -7 -9 -5 -13 3 -4
-1 -8 -8 -8 -9 0 -12 7 -8 16 4 12 0 11 -18 -4 -13 -11 -21 -15 -17 -10 3 6 2
17 -3 25 -5 9 -5 19 2 27 14 17 -2 16 -25 -1 -15 -12 -16 -14 -2 -20 8 -3 15
-11 14 -18 0 -10 -2 -10 -6 0 -2 6 -9 12 -14 12 -6 0 -8 -4 -5 -8 3 -5 -1 -9
-9 -9 -8 0 -15 5 -15 10 0 5 -7 4 -15 -3 -8 -7 -15 -11 -16 -9 -6 32 -6 39 3
39 6 0 3 9 -7 20 -10 11 -14 20 -9 20 6 0 10 9 11 20 1 13 -2 18 -9 14 -7 -4
-8 -2 -4 5 4 6 3 18 -4 26 -8 10 -8 15 1 20 8 6 7 10 -2 16 -11 7 -11 9 -1 9
7 0 10 5 7 10 -4 6 -10 8 -15 5 -10 -6 -7 21 3 31 15 15 6 26 -10 13 -10 -7
-15 -10 -11 -5 4 5 3 18 -3 29 -8 14 -8 18 0 13 6 -4 11 -3 11 2 0 6 -7 12
-15 16 -8 3 -15 10 -15 17 0 6 7 8 15 5 8 -3 22 -9 30 -12 11 -4 13 -2 9 10
-3 8 -11 14 -17 13 -7 -1 -12 5 -12 13 0 8 7 14 16 12 9 -1 16 5 16 13 0 11
-6 14 -16 9 -9 -3 -22 -7 -29 -7 -7 0 -10 -8 -7 -21 3 -12 2 -15 -1 -8 -3 6
-11 9 -16 6 -6 -4 -8 -2 -4 4 3 6 2 13 -4 17 -6 4 -8 11 -5 16 4 5 0 9 -7 9
-7 0 -2 7 10 16 12 8 22 20 22 27 0 8 -3 8 -11 0 -6 -6 -18 -9 -26 -6 -11 4
-10 8 4 19 10 7 13 14 6 14 -6 0 -20 -8 -29 -17 -16 -16 -17 -16 -12 -1 4 9 2
19 -5 22 -7 3 -6 5 3 5 9 1 16 11 17 24 2 21 1 21 -13 3 -8 -11 -14 -14 -14
-7 0 7 -5 9 -12 5 -10 -6 -10 -4 0 8 8 10 9 19 3 22 -5 3 -12 0 -14 -6 -4 -10
-6 -10 -6 0 -1 7 -6 10 -13 6 -7 -4 -8 -3 -4 5 4 6 12 9 17 6 13 -9 10 6 -7
35 -13 22 -14 22 -9 3 6 -24 -9 -40 -21 -22 -5 8 -3 9 6 4 10 -6 12 -4 7 9 -4
10 -7 20 -7 22 0 2 -5 4 -11 4 -5 0 -7 -6 -3 -12 4 -8 3 -10 -2 -5 -5 5 -10
13 -10 18 -3 22 -5 23 -13 11 -7 -11 -9 -10 -14 3 -5 10 -3 14 4 9 7 -4 10 -1
7 7 -3 8 -13 14 -24 14 -10 0 -19 6 -19 13 0 16 -26 33 -39 25 -5 -4 -6 -1 -1
7 6 10 4 12 -8 7 -19 -7 -40 23 -32 46 4 8 0 14 -10 14 -11 0 -13 -6 -9 -20 5
-17 4 -18 -9 -6 -13 12 -13 16 0 36 9 14 11 23 5 23 -6 0 -17 -10 -23 -22 -11
-20 -13 -20 -24 -5 -6 9 -15 14 -18 10 -4 -3 -16 2 -27 12 -11 10 -20 14 -20
9 0 -5 -7 -1 -15 10 -7 10 -19 15 -24 11 -6 -3 -14 1 -17 9 -3 9 -10 16 -16
16 -5 0 -6 -5 -2 -12 4 -7 3 -8 -5 -4 -6 4 -9 11 -6 16 3 5 1 11 -5 15 -5 3
-10 1 -10 -4 0 -16 -36 -7 -61 15 -20 17 -22 17 -16 1 6 -17 5 -17 -23 -1 -16
10 -27 21 -24 26 9 15 -9 8 -20 -8 -11 -14 -13 -14 -25 0 -9 11 -10 16 -2 16
6 0 11 -5 11 -12 0 -6 3 -9 6 -5 3 3 2 13 -4 22 -8 15 -11 14 -30 -10 -12 -15
-22 -23 -22 -18 0 6 -11 9 -24 8 -17 -2 -26 3 -29 16 -3 10 -1 22 4 25 5 3 8
0 7 -8 -2 -7 4 -13 12 -13 8 0 20 -4 26 -8 7 -4 12 2 12 18 0 26 -12 33 -23
15 -5 -8 -12 -7 -22 2 -17 14 -71 20 -78 8 -2 -4 12 -6 33 -4 35 2 36 2 13
-10 -19 -11 -21 -14 -7 -19 9 -4 16 -12 16 -19 0 -9 -3 -9 -10 2 -8 12 -11 13
-19 1 -6 -9 -11 -10 -15 -2 -4 6 -12 11 -18 11 -6 0 -6 -6 2 -15 11 -13 10
-14 -4 -9 -9 3 -16 11 -16 17 0 6 -6 2 -14 -8 -12 -17 -14 -17 -22 -2 -7 11
-14 13 -24 7 -12 -8 -13 -10 -1 -10 8 0 11 -3 8 -7 -4 -3 -16 2 -27 12 -20 18
-28 9 -10 -13 5 -7 3 -6 -6 2 -9 8 -16 26 -16 40 0 22 -3 24 -15 14 -11 -9
-16 -9 -23 2 -4 7 -6 19 -3 27 4 11 8 10 20 -4 14 -17 14 -17 9 0 -3 10 -2 16
3 12 5 -3 12 1 15 7 3 7 4 4 1 -8 -3 -13 0 -21 8 -21 8 0 14 12 14 29 0 15 -2
28 -4 28 -1 0 -3 -4 -3 -9z"/>
<path d="M1577 2736 c-4 -9 -13 -13 -22 -10 -8 3 -15 1 -15 -5 0 -6 5 -11 12
-11 6 0 8 -3 5 -7 -4 -3 -2 -12 4 -20 9 -10 8 -13 -1 -13 -19 0 -3 -13 20 -17
19 -3 20 -2 4 21 -12 20 -13 29 -4 43 10 16 11 16 6 1 -9 -30 4 -48 31 -43 36
6 41 15 7 12 -25 -2 -29 1 -29 25 -1 33 -10 45 -18 24z"/>
<path d="M945 2724 c9 -9 19 -13 23 -10 3 4 0 11 -8 16 -24 15 -33 11 -15 -6z"/>
<path d="M1140 2722 c0 -7 -6 -11 -12 -9 -7 1 -12 -4 -10 -10 2 -12 -11 -17
-31 -14 -5 1 -6 -3 -3 -8 4 -5 2 -11 -4 -13 -6 -2 -1 -9 10 -16 19 -11 21 -11
18 5 -2 12 2 17 15 15 9 -2 17 1 16 5 -1 4 1 16 6 26 4 10 5 21 1 24 -3 4 -6
1 -6 -5z"/>
<path d="M1163 2718 c3 -9 0 -19 -7 -21 -12 -5 -13 -19 -7 -62 1 -5 6 -3 11 5
12 19 13 33 2 26 -5 -3 -9 1 -9 8 0 8 7 13 16 11 9 -1 15 -9 14 -16 -2 -8 7
-15 20 -15 15 -1 24 4 24 13 0 8 -6 12 -14 9 -8 -3 -22 8 -34 27 -12 17 -19
24 -16 15z"/>
<path d="M1411 2716 c-8 -10 -9 -16 -1 -21 6 -3 8 -11 5 -16 -4 -5 -2 -9 4 -9
5 0 9 14 9 30 -1 34 -2 35 -17 16z"/>
<path d="M1477 2716 c-4 -9 -14 -12 -28 -9 l-22 6 21 -21 c12 -12 22 -27 22
-33 0 -5 5 -7 10 -4 8 5 7 12 -2 23 -7 9 -8 13 -2 9 7 -4 12 2 12 18 0 28 -3
31 -11 11z"/>
<path d="M1736 2715 c-2 -7 7 -12 24 -12 21 0 25 3 17 12 -6 6 -17 12 -24 12
-7 0 -14 -6 -17 -12z"/>
<path d="M542 2686 c-19 -13 -43 -22 -58 -20 -19 2 -24 -1 -20 -13 3 -8 6 -17
6 -19 0 -3 5 -2 10 1 6 4 7 12 3 18 -3 7 3 4 14 -5 11 -10 23 -18 28 -18 4 0
1 8 -6 18 -12 15 -12 16 2 4 13 -10 19 -10 28 2 9 11 9 15 -1 18 -9 3 -9 6 0
12 7 4 12 2 12 -6 0 -9 3 -9 10 2 5 8 10 10 10 4 0 -6 -7 -17 -15 -24 -8 -7
-15 -16 -15 -21 0 -5 7 -9 15 -9 8 0 14 3 13 8 0 4 2 15 6 24 4 9 4 24 -1 32
-8 14 -13 13 -41 -8z"/>
<path d="M597 2703 c-3 -5 -2 -15 2 -22 5 -7 11 -9 14 -4 3 5 2 15 -2 22 -5 7
-11 9 -14 4z"/>
<path d="M782 2689 c-7 -11 -18 -19 -25 -18 -32 4 -40 -1 -27 -16 11 -14 15
-14 34 2 l21 18 -19 -22 c-24 -28 -6 -31 19 -3 13 14 14 20 5 20 -7 0 -11 3
-7 6 3 3 11 3 17 -1 8 -5 8 -10 0 -20 -17 -20 6 -29 30 -12 16 11 18 16 8 25
-7 6 -17 11 -23 11 -5 1 -10 5 -10 10 0 19 -11 19 -23 0z m39 -42 c-10 -9 -11
-8 -5 6 3 10 9 15 12 12 3 -3 0 -11 -7 -18z"/>
<path d="M1503 2689 c-6 -6 -9 -17 -7 -24 3 -7 -2 -15 -11 -19 -10 -4 -19 2
-27 19 -10 22 -12 23 -23 8 -12 -16 -40 -9 -30 8 4 5 2 9 -3 9 -6 0 -13 -7
-16 -16 -9 -22 -8 -26 5 -18 7 4 20 -4 30 -17 16 -21 18 -22 24 -6 6 15 9 14
26 -7 21 -27 55 -28 53 -2 -1 8 2 14 6 11 5 -3 11 1 14 7 2 7 4 2 3 -12 -1
-15 3 -24 10 -23 6 2 15 -6 18 -17 4 -11 11 -17 17 -14 6 4 17 -1 23 -10 11
-14 13 -10 12 29 0 25 5 51 12 58 10 9 11 8 5 -8 -7 -20 -7 -20 14 -1 12 11
25 16 29 13 3 -4 1 -7 -6 -7 -7 0 -9 -5 -5 -11 11 -18 27 18 16 37 -8 15 -10
15 -15 1 -4 -11 -15 -15 -35 -13 -20 3 -32 -2 -40 -15 -7 -10 -8 -19 -3 -19 5
0 12 6 14 13 4 9 6 9 6 0 2 -21 -22 -26 -36 -8 -11 16 -13 17 -13 3 0 -9 5
-20 10 -23 6 -3 10 -10 10 -16 0 -5 -8 -1 -18 9 -10 9 -17 22 -15 28 3 7 0 15
-5 18 -16 9 -39 -3 -49 -26 -8 -20 -10 -20 -16 -4 -4 9 -3 15 1 13 4 -2 15 4
25 15 16 17 14 22 -6 19 -5 -1 -6 3 -2 9 5 8 11 7 21 -1 8 -6 18 -9 21 -5 4 4
1 11 -7 16 -19 12 -24 12 -37 -1z m-53 -29 c0 -5 -5 -10 -11 -10 -5 0 -7 5 -4
10 3 6 8 10 11 10 2 0 4 -4 4 -10z"/>
<path d="M1745 2691 c-3 -5 0 -13 6 -17 8 -5 9 -3 4 6 -5 9 -4 11 3 6 9 -5 8
-12 -1 -27 -10 -16 -9 -21 3 -29 22 -14 30 -12 24 5 -4 8 -11 12 -17 8 -5 -3
-7 -1 -4 5 4 5 17 8 30 5 22 -5 22 -5 2 11 -11 10 -13 15 -5 11 8 -4 6 1 -4 9
-23 18 -32 20 -41 7z"/>
<path d="M1936 2688 c3 -4 -9 -14 -26 -23 -16 -8 -30 -21 -30 -27 0 -6 8 -4
19 6 11 10 25 14 36 10 12 -5 16 -4 11 4 -8 13 30 36 44 27 6 -4 7 -11 4 -17
-4 -7 -2 -8 4 -4 8 5 10 1 5 -10 -5 -13 -3 -15 7 -9 9 5 11 4 6 -3 -4 -7 -2
-12 3 -12 15 0 14 12 -4 36 -8 12 -12 23 -10 26 3 2 -13 4 -34 4 -22 -1 -37
-4 -35 -8z"/>
<path d="M422 2678 c-18 -18 -14 -32 6 -17 14 11 15 11 5 -1 -19 -21 -16 -35
4 -19 9 8 14 10 11 4 -8 -14 28 -49 37 -36 3 6 2 11 -4 11 -6 0 -19 16 -29 35
-14 28 -20 33 -30 23z"/>
<path d="M1962 2673 c-9 -3 -7 -9 6 -21 10 -10 12 -13 5 -8 -9 6 -20 3 -31 -8
-21 -19 -32 -20 -32 -5 0 5 5 7 10 4 6 -3 10 -1 10 4 0 16 -9 14 -37 -9 -14
-11 -22 -20 -18 -20 4 0 2 -7 -5 -14 -8 -11 -9 -20 -1 -33 8 -14 11 -15 12 -3
1 8 3 20 3 25 3 23 17 31 51 29 34 -3 36 -2 23 14 -12 15 -11 16 4 4 9 -8 23
-10 29 -6 8 5 9 3 4 -6 -5 -9 -4 -11 4 -6 6 4 14 0 17 -8 3 -9 11 -13 17 -9 5
3 7 1 4 -4 -4 -7 3 -10 18 -9 14 0 25 6 25 11 0 6 4 4 9 -4 5 -8 7 -20 4 -28
-4 -10 0 -10 22 1 27 14 55 12 55 -5 0 -12 -18 -11 -22 1 -2 6 -9 1 -15 -10
-12 -18 -11 -19 17 -16 19 2 39 -3 53 -14 22 -18 22 -18 -12 -14 -27 3 -31 1
-22 -9 11 -14 38 -16 58 -4 6 4 15 2 19 -4 4 -8 3 -9 -4 -5 -7 4 -12 3 -12 -3
0 -5 10 -13 21 -16 15 -5 18 -9 9 -15 -9 -5 -6 -12 11 -24 17 -12 19 -16 7
-16 -24 0 -40 -24 -25 -39 9 -10 9 -11 -4 -6 -9 3 -16 1 -16 -7 0 -7 -4 -22
-9 -32 -5 -15 -4 -17 6 -11 8 5 11 4 7 -2 -4 -6 0 -14 9 -17 12 -5 15 -2 9 11
-11 31 -10 38 5 38 8 0 14 -5 13 -12 -1 -6 4 -14 12 -17 20 -7 19 0 -5 40 -21
32 -21 33 -1 43 14 8 20 7 24 -3 4 -10 -1 -12 -16 -9 -22 5 -22 5 -2 -10 11
-8 23 -13 27 -11 4 3 5 -2 2 -10 -3 -9 -1 -16 5 -16 15 0 14 25 -1 52 -19 34
-35 48 -43 40 -5 -4 -5 1 -2 10 4 11 -5 29 -26 50 -30 32 -33 37 -36 58 0 6
-6 10 -12 10 -5 0 -7 -5 -3 -12 5 -7 3 -8 -5 -4 -7 5 -10 14 -7 21 3 8 -4 17
-15 20 -10 4 -17 11 -14 16 11 16 -7 9 -20 -8 -13 -17 -14 -17 -32 0 -11 9
-22 14 -26 11 -9 -10 -27 33 -21 50 5 12 2 15 -9 10 -9 -3 -13 -12 -11 -19 3
-7 0 -16 -7 -21 -14 -8 -52 33 -43 47 6 10 -3 11 -24 2z m91 -57 c4 -10 1 -13
-8 -9 -8 3 -12 9 -9 14 7 12 11 11 17 -5z"/>
<path d="M1710 2662 c0 -24 -2 -27 -17 -36 -9 -5 -18 -4 -22 2 -8 14 -36 -8
-36 -28 0 -15 26 -42 34 -34 2 2 -2 10 -8 18 -22 26 -2 38 26 16 26 -21 48
-27 39 -11 -8 13 4 42 15 35 5 -3 9 -14 9 -25 0 -11 5 -17 10 -14 6 4 8 12 4
18 -3 7 3 2 14 -10 20 -23 40 -20 21 3 -7 9 -6 12 8 10 11 -2 17 -10 15 -21
-2 -9 1 -14 7 -11 5 4 13 1 17 -5 4 -8 3 -9 -4 -5 -7 4 -12 3 -12 -3 0 -5 9
-13 20 -16 11 -3 20 -13 20 -21 0 -20 14 -18 35 6 10 11 13 20 7 20 -7 0 -12
5 -12 11 0 5 6 7 13 3 6 -4 9 -4 5 1 -4 4 -3 14 3 22 9 9 8 13 0 13 -22 0 -26
-2 -23 -11 1 -6 -3 -19 -9 -31 -9 -16 -8 -19 2 -13 8 5 10 4 5 -3 -11 -18 -12
-17 -51 43 -21 30 -42 55 -48 55 -8 0 -7 -3 1 -9 11 -7 10 -10 -3 -15 -24 -9
-23 -9 -56 26 -16 18 -29 27 -29 20z m5 -42 c-3 -5 -12 -10 -18 -10 -7 0 -6 4
3 10 19 12 23 12 15 0z"/>
<path d="M378 2642 c-9 -9 -14 -25 -13 -34 2 -10 -1 -18 -6 -18 -6 0 -8 -4 -5
-8 3 -5 24 -9 46 -9 22 0 43 4 46 9 3 4 0 8 -6 8 -6 0 -8 4 -5 10 6 10 14 5
56 -32 22 -21 28 -1 7 21 -10 11 -10 13 0 7 6 -4 12 -3 12 2 0 6 7 13 16 16 8
3 12 2 9 -3 -3 -5 -1 -12 5 -16 5 -3 10 -1 10 4 0 6 5 11 11 11 8 0 7 -5 -1
-15 -17 -21 -9 -27 13 -10 18 13 17 14 -7 30 -14 9 -30 14 -36 10 -6 -4 -18
-1 -27 7 -14 11 -16 11 -10 -4 10 -28 -17 -41 -37 -19 -20 22 -44 18 -42 -7 0
-9 -6 -17 -14 -17 -8 0 -15 7 -15 15 0 8 -4 18 -9 21 -4 4 -3 10 3 13 6 4 11
2 11 -3 0 -6 5 -11 10 -11 12 0 13 27 1 34 -4 3 -15 -2 -23 -12z"/>
<path d="M589 2656 c0 -1 -2 -10 -4 -20 -5 -25 3 -38 17 -30 6 4 5 10 -3 16
-10 6 -7 7 9 3 16 -5 22 -3 20 7 -2 7 4 13 12 13 8 0 14 -6 12 -13 -2 -10 4
-12 20 -7 16 4 19 3 9 -3 -8 -6 -9 -12 -3 -16 14 -8 22 5 18 29 -2 16 -12 20
-54 21 -29 0 -52 0 -53 0z"/>
<path d="M1030 2640 c0 -5 5 -10 10 -10 6 0 10 5 10 10 0 6 -4 10 -10 10 -5 0
-10 -4 -10 -10z"/>
<path d="M775 2631 c-3 -7 -15 -9 -24 -6 -10 3 -29 -3 -42 -14 -21 -17 -25
-17 -46 -4 -21 14 -26 14 -48 -1 -15 -10 -23 -22 -19 -28 5 -7 2 -9 -9 -5 -9
3 -19 1 -23 -5 -4 -7 -13 -2 -24 12 -11 15 -19 19 -24 11 -4 -6 -2 -11 4 -11
7 0 8 -6 0 -19 -6 -13 -17 -17 -30 -14 -12 3 -20 0 -20 -6 0 -7 5 -9 10 -6 6
3 13 -1 16 -9 5 -12 9 -13 19 -3 7 7 11 14 10 17 -2 3 1 12 7 20 8 12 9 12 4
-2 -7 -22 7 -23 28 -2 9 8 16 11 16 5 0 -5 9 -9 20 -8 14 1 18 6 15 18 -3 10
-1 20 4 24 7 4 8 -1 5 -12 -5 -15 -4 -16 5 -3 10 13 12 13 22 0 9 -13 10 -12
5 3 -3 11 -2 16 5 12 5 -4 7 -14 4 -24 -3 -12 1 -17 15 -18 11 -1 20 2 20 8 0
5 -5 9 -12 9 -9 0 -9 3 0 12 8 8 15 8 27 -2 17 -14 21 0 4 17 -7 7 -6 12 5 16
11 4 13 1 9 -11 -6 -15 -5 -15 11 -3 15 13 19 13 27 0 8 -12 13 -6 10 13 0 4
6 5 15 1 12 -5 12 -8 -6 -20 -11 -8 -20 -21 -20 -30 0 -14 2 -14 16 3 8 10 14
15 11 9 -7 -16 29 -44 44 -34 8 5 10 9 5 9 -5 0 -4 6 2 13 20 23 8 52 -22 52
-15 1 -31 7 -35 14 -6 10 -10 10 -16 2z m75 -48 c0 -2 -6 -11 -14 -18 -12 -12
-15 -12 -20 1 -8 21 1 34 19 27 8 -3 15 -7 15 -10z"/>
<path d="M333 2596 c-9 -11 -8 -18 8 -32 10 -9 19 -12 19 -6 0 6 -4 13 -10 17
-5 3 -7 12 -3 20 6 18 2 19 -14 1z"/>
<path d="M390 2600 c0 -5 5 -10 10 -10 6 0 10 5 10 10 0 6 -4 10 -10 10 -5 0
-10 -4 -10 -10z"/>
<path d="M906 2594 c-9 -24 -2 -26 12 -4 7 11 8 20 3 20 -5 0 -12 -7 -15 -16z"/>
<path d="M1660 2601 c0 -10 19 -25 25 -20 1 2 -3 10 -11 17 -8 7 -14 8 -14 3z"/>
<path d="M1935 2593 c-13 -30 -14 -44 -2 -40 6 2 12 15 14 30 4 31 -1 35 -12
10z"/>
<path d="M1969 2602 c-1 -4 -1 -10 0 -14 0 -5 -4 -8 -11 -8 -6 0 -9 -3 -6 -6
4 -3 15 -1 27 5 16 9 22 8 33 -6 13 -18 53 -29 42 -12 -3 5 0 9 6 9 6 0 9 -8
6 -18 -4 -12 -1 -19 8 -19 8 0 13 10 12 23 -1 17 -6 21 -26 19 -31 -3 -50 4
-50 19 0 12 -39 20 -41 8z"/>
<path d="M740 2580 c-8 -16 -15 -19 -24 -11 -10 8 -12 4 -11 -19 1 -16 -2 -27
-7 -24 -4 3 -8 0 -8 -5 0 -6 5 -11 11 -11 5 0 7 -4 4 -10 -12 -19 -23 -10 -20
15 2 22 -13 49 -16 28 -11 -79 2 -89 54 -41 17 15 26 28 20 28 -6 0 -13 -3
-16 -7 -2 -5 -2 -3 -1 4 2 6 -2 14 -9 17 -7 2 -1 4 13 3 16 -1 25 3 25 13 0 8
4 18 9 21 4 4 3 9 -2 13 -6 4 -16 -3 -22 -14z"/>
<path d="M1761 2577 c-6 -8 -7 -18 -3 -22 4 -5 1 -5 -6 -1 -7 4 -10 11 -7 16
6 10 -48 6 -65 -5 -6 -3 -7 -12 -3 -18 3 -7 -3 -3 -15 7 -12 11 -22 14 -22 9
0 -16 28 -36 40 -28 5 3 13 -1 16 -10 6 -14 8 -13 20 4 8 11 23 19 34 18 20
-1 29 -17 10 -17 -5 0 -10 -4 -10 -10 0 -5 6 -9 13 -7 6 1 12 -7 13 -18 2 -40
4 -46 14 -40 6 4 16 2 23 -4 7 -6 18 -6 26 -1 8 4 21 5 30 2 13 -5 14 -3 3 10
-7 8 -10 22 -6 31 6 17 -28 57 -48 57 -9 0 -8 -4 2 -10 11 -7 11 -10 2 -10 -7
0 -10 -5 -7 -10 5 -8 11 -8 20 0 9 8 14 7 18 -3 4 -11 -2 -13 -24 -11 -26 3
-28 2 -17 -16 9 -13 14 -16 20 -7 4 6 10 8 15 4 4 -5 1 -12 -6 -16 -15 -9 -48
-3 -57 10 -3 5 3 6 13 2 14 -5 16 -3 6 7 -8 9 -9 19 -2 32 5 10 7 18 3 18 -3
0 -1 6 6 14 9 12 8 15 -9 13 -15 -1 -19 -6 -16 -18 3 -10 2 -20 -3 -23 -5 -3
-8 10 -7 29 1 40 1 39 -14 22z m-44 -32 c-8 -9 -14 -10 -19 -2 -9 16 0 27 17
21 11 -5 12 -9 2 -19z"/>
<path d="M445 2570 c-3 -5 -3 -14 0 -20 3 -5 2 -10 -3 -10 -5 0 -9 -7 -9 -16
0 -10 7 -14 18 -11 11 3 16 0 13 -8 -3 -6 2 -18 11 -25 18 -15 21 0 3 18 -8 8
-8 12 -1 12 16 0 25 -31 13 -45 -7 -9 -5 -16 7 -26 15 -12 16 -12 11 2 -4 9 0
29 8 44 12 24 12 26 -1 21 -9 -3 -18 1 -21 9 -4 8 -10 13 -14 10 -17 -10 -23
18 -6 30 15 12 15 13 0 19 -21 8 -22 8 -29 -4z"/>
<path d="M1967 2563 c-19 -9 -27 -20 -23 -30 3 -8 6 -17 6 -19 0 -2 5 -4 10
-4 11 0 9 22 -3 31 -5 3 -1 9 8 12 9 4 13 3 10 -3 -3 -5 4 -8 15 -7 11 1 20 7
20 14 0 20 -14 22 -43 6z"/>
<path d="M297 2552 c-18 -20 -23 -47 -8 -37 6 3 15 -4 21 -15 11 -20 30 -19
30 1 0 6 -5 7 -12 3 -6 -4 -8 -3 -4 4 3 6 -3 13 -14 17 -20 6 -19 25 1 25 6 0
7 -4 4 -10 -3 -5 -1 -10 5 -10 7 0 10 7 6 18 -5 15 -4 14 9 -2 8 -10 12 -23 9
-27 -3 -5 2 -9 10 -9 21 0 16 20 -11 42 -26 22 -26 22 -46 0z"/>
<path d="M373 2544 c4 -26 0 -36 -24 -53 -17 -12 -30 -17 -34 -11 -4 6 -11 7
-17 4 -8 -5 -9 -1 -4 12 4 10 4 15 0 11 -4 -4 -14 -1 -22 6 -13 9 -14 9 -8 0
4 -8 2 -13 -5 -13 -7 0 -9 -3 -6 -6 3 -4 -5 -15 -18 -26 -14 -11 -25 -25 -25
-33 0 -7 -3 -15 -7 -18 -5 -2 -3 -3 3 -1 6 1 18 -6 27 -17 20 -23 39 -25 31
-4 -4 8 -10 12 -15 9 -5 -3 -6 2 -3 11 4 9 3 15 -2 13 -5 -2 -10 0 -11 5 -6
16 -3 27 8 27 5 0 8 -4 4 -9 -3 -5 0 -13 6 -17 8 -4 9 -3 5 4 -4 7 -1 12 6 12
9 0 10 2 2 8 -8 5 -7 11 4 22 14 13 15 13 10 -1 -5 -13 2 -16 37 -15 33 1 41
4 38 16 -2 8 5 -1 16 -20 20 -35 30 -35 11 0 -13 24 -3 50 20 50 21 0 32 -22
24 -47 -3 -10 2 -7 11 7 9 14 14 17 11 8 -4 -12 0 -16 12 -12 9 3 6 -1 -7 -9
-14 -8 -19 -17 -13 -21 6 -3 13 -2 17 4 9 14 25 2 19 -14 -3 -7 2 -13 11 -13
19 0 19 11 0 27 -8 7 -12 16 -10 21 3 4 -8 18 -24 30 -24 17 -28 27 -24 53 4
30 4 30 -11 11 l-16 -20 -16 20 c-15 19 -15 19 -11 -11z"/>
<path d="M627 2551 c-3 -15 -1 -18 12 -14 14 4 14 3 1 -7 -11 -9 -12 -13 -2
-17 6 -2 12 -9 12 -14 0 -6 -4 -7 -10 -4 -6 4 -9 -12 -7 -40 2 -26 -2 -49 -7
-52 -5 -4 -6 -1 -1 7 6 10 4 11 -11 5 -10 -4 -31 -8 -46 -8 -15 0 -30 -7 -33
-15 -4 -10 -1 -12 12 -7 10 4 32 8 50 8 35 -1 99 49 87 68 -4 8 -9 7 -15 -2
-4 -7 -6 -16 -4 -19 2 -4 -2 -7 -9 -7 -7 0 -13 6 -13 13 0 7 3 11 6 9 5 -3 6
55 2 103 -2 19 -18 14 -24 -7z"/>
<path d="M2100 2541 c-11 -21 -37 -22 -50 -2 -6 11 -12 11 -31 0 -13 -7 -25
-12 -26 -11 -9 6 -23 0 -18 -7 12 -21 -19 -23 -34 -2 l-17 22 -29 -31 -29 -30
22 -22 22 -23 -4 32 c-2 17 1 37 6 45 7 10 8 9 4 -4 -3 -10 -1 -18 4 -18 6 0
10 5 10 11 0 5 5 7 10 4 6 -3 10 -11 10 -16 0 -6 -4 -8 -9 -5 -5 3 -14 0 -20
-7 -8 -11 -5 -14 19 -14 16 0 27 4 24 8 -3 5 4 16 15 26 11 9 18 20 15 24 -2
4 4 6 13 4 10 -1 17 -9 15 -18 -2 -11 2 -15 12 -11 12 5 13 11 5 27 -10 21 -9
21 5 3 8 -10 19 -15 25 -12 5 4 12 2 16 -4 10 -17 25 -11 19 8 -5 14 -4 14 4
2 6 -8 8 -18 6 -22 -3 -4 0 -8 5 -8 13 0 14 10 1 30 -5 9 -5 19 2 27 7 9 7 13
0 13 -6 0 -16 -9 -22 -19z"/>
<path d="M553 2537 c-13 -5 -23 -14 -23 -19 0 -10 17 -11 23 0 2 4 2 2 1 -5
-2 -6 4 -14 12 -17 12 -5 14 -1 9 17 -5 17 -4 19 4 7 12 -17 15 -1 3 16 -5 8
-14 8 -29 1z"/>
<path d="M599 2545 c-1 -5 -1 -14 0 -18 1 -4 -3 -16 -9 -27 -7 -13 -7 -21 0
-25 18 -11 -1 -26 -23 -20 l-22 6 22 -19 c12 -11 19 -23 15 -27 -4 -4 3 -2 16
4 17 9 21 18 16 33 -4 14 -2 18 5 14 7 -4 9 -1 5 8 -3 8 -13 13 -22 10 -9 -3
-7 1 5 8 20 12 20 15 8 38 -8 14 -15 21 -16 15z"/>
<path d="M2137 2524 c-3 -3 -3 -12 -1 -19 8 -21 -15 -28 -39 -12 -19 12 -27
13 -47 2 -32 -17 -55 -9 -38 14 7 9 0 5 -15 -8 -15 -14 -26 -25 -24 -26 1 0
15 -9 31 -19 25 -16 28 -16 23 -2 -4 10 1 20 13 26 15 8 20 8 20 -1 0 -8 4 -8
15 1 14 11 19 7 16 -12 -1 -8 53 -3 69 7 10 6 14 -7 10 -34 -1 -13 1 -13 15
-1 20 17 35 0 28 -34 -4 -19 -3 -19 7 -3 6 9 16 17 21 17 12 0 -20 -34 -33
-36 -4 -1 -11 -2 -15 -3 -4 0 2 -8 13 -17 18 -15 18 -15 -3 -5 -28 14 -30 14
-30 -4 0 -10 6 -13 19 -9 10 3 18 0 18 -6 0 -6 -4 -9 -9 -6 -18 12 -5 -30 14
-44 28 -21 47 -21 63 -2 7 9 11 12 8 5 -4 -6 -2 -14 3 -17 5 -3 11 0 14 8 3 8
-4 18 -18 24 -19 9 -22 8 -21 -6 1 -12 -5 -16 -19 -14 -25 5 -37 22 -29 42 3
8 7 23 10 34 2 10 11 27 20 37 15 17 11 45 -6 34 -4 -3 -10 2 -13 10 -4 10 -1
12 11 9 9 -3 5 2 -11 11 -15 9 -31 14 -36 11 -9 -6 -40 23 -39 37 0 12 -8 18
-15 11z"/>
<path d="M385 2490 c-6 -9 19 -60 29 -60 2 0 3 14 2 32 -2 32 -19 48 -31 28z"/>
<path d="M527 2493 c-13 -12 -7 -25 7 -14 10 9 16 8 26 -4 7 -8 17 -15 23 -15
5 0 0 9 -13 20 -25 21 -33 24 -43 13z"/>
<path d="M530 2467 c-8 -7 -16 -19 -16 -27 -1 -8 -5 -24 -9 -35 l-8 -20 17 20
c17 20 17 20 7 -2 -8 -15 -17 -20 -33 -16 -22 4 -22 4 -3 -8 42 -27 45 -24 46
46 1 29 1 29 13 7 7 -12 15 -20 19 -16 3 3 0 13 -8 20 -8 8 -12 21 -9 29 7 18
4 18 -16 2z"/>
<path d="M2079 2473 c-1 -5 -1 -12 1 -18 1 -5 -4 -4 -11 3 -7 6 -20 12 -28 12
-11 0 -11 -3 4 -13 18 -14 13 -38 -8 -36 -9 0 -9 2 1 6 6 2 12 9 12 14 0 17
-36 -13 -37 -31 -1 -16 1 -17 24 -5 15 8 31 11 36 8 6 -4 8 1 4 11 -4 10 -3
15 3 11 6 -4 9 5 8 19 -2 25 -7 34 -9 19z"/>
<path d="M274 2443 c-9 -9 -12 -22 -8 -32 4 -9 6 -26 5 -38 0 -13 4 -23 10
-23 5 0 7 5 3 12 -4 6 -3 9 2 5 5 -3 18 2 29 10 20 15 20 15 -3 10 -16 -4 -25
1 -33 15 -8 15 -8 19 1 13 7 -4 10 -1 8 10 -2 10 3 20 11 23 9 3 11 -1 7 -15
-4 -14 -2 -20 9 -20 9 0 14 6 11 13 -7 17 5 26 20 13 8 -7 14 -7 19 1 3 5 3
10 -2 11 -50 7 -76 4 -89 -8z"/>
<path d="M1919 2444 c-6 -8 -17 -11 -23 -6 -16 11 -52 9 -46 -3 3 -6 26 -10
52 -10 36 0 44 3 36 13 -7 8 -7 12 1 12 6 0 11 -4 11 -10 0 -5 7 -10 16 -10 8
0 12 5 9 10 -3 6 -2 10 4 10 5 0 11 -6 14 -12 2 -7 8 -10 12 -5 13 11 -1 19
-39 22 -21 2 -40 -2 -47 -11z"/>
<path d="M2092 2423 c-9 -18 -18 -29 -22 -23 -3 5 -11 0 -18 -10 -11 -18 -10
-20 9 -17 13 2 28 19 40 43 16 32 18 25 3 -11 -3 -6 5 -11 17 -12 16 -2 18 1
9 12 -7 8 -7 15 -1 19 12 8 41 -3 41 -15 0 -5 9 -4 19 3 11 7 17 16 14 20 -2
5 -11 4 -18 -2 -9 -7 -16 -6 -24 4 -9 11 -9 15 1 18 7 3 -2 5 -20 5 -29 0 -36
-6 -50 -34z"/>
<path d="M333 2394 c-1 -24 3 -44 8 -44 6 0 8 4 4 9 -3 5 -1 13 5 16 8 5 7 12
-2 23 -12 16 -11 16 6 2 18 -14 19 -13 13 5 -7 19 -6 19 7 2 11 -14 15 -15 20
-5 5 11 7 11 12 0 5 -10 10 -9 21 5 8 10 11 12 7 4 -6 -11 -3 -13 12 -7 14 5
16 4 7 -5 -6 -6 -27 -12 -47 -12 -40 -1 -42 -5 -21 -33 13 -16 14 -16 9 -1 -3
9 -1 17 5 17 6 0 10 -5 9 -11 -2 -6 2 -13 8 -16 7 -2 11 4 10 13 -2 28 23 28
35 0 10 -20 15 -23 26 -15 9 8 13 8 13 0 0 -7 7 -7 25 1 14 6 25 16 25 22 0 6
4 4 9 -4 13 -19 4 -31 -16 -23 -10 4 -14 2 -9 -5 3 -6 -2 -15 -11 -21 -10 -6
-13 -11 -7 -11 12 0 70 42 73 53 1 4 -2 14 -7 23 -7 13 -11 13 -33 -4 -26 -19
-37 -21 -56 -9 -7 5 -13 5 -13 0 0 -4 -4 -2 -9 5 -4 7 -7 26 -6 42 1 20 -2 27
-9 22 -13 -9 -97 -9 -111 0 -6 4 -11 -12 -12 -38z"/>
<path d="M1976 2414 c-8 -21 -8 -24 5 -24 5 0 7 5 3 12 -4 6 -3 8 4 4 6 -3 13
-2 16 3 3 5 0 11 -8 14 -8 3 -17 -1 -20 -9z"/>
<path d="M1857 2407 c-7 -5 -4 -6 10 -2 16 4 23 1 28 -15 3 -11 16 -25 27 -31
18 -10 20 -9 14 6 -12 32 6 37 37 8 21 -20 28 -23 24 -10 -4 11 -3 16 3 12 6
-3 10 -1 10 4 0 6 -10 10 -22 8 -16 -1 -23 3 -22 14 1 12 -10 15 -48 15 -26 0
-54 -4 -61 -9z m73 -1 c0 -2 -7 -7 -16 -10 -8 -3 -12 -2 -9 4 6 10 25 14 25 6z"/>
<path d="M2138 2412 c7 -5 10 -16 6 -26 -4 -12 -10 -14 -18 -6 -9 6 -18 5 -31
-4 -14 -10 -15 -15 -5 -21 8 -5 11 -4 7 1 -7 12 43 12 62 0 9 -6 12 -5 7 2 -3
6 3 16 14 22 11 6 20 16 20 22 0 7 -4 7 -14 -1 -10 -9 -16 -8 -26 4 -7 8 -18
15 -24 15 -7 0 -6 -3 2 -8z"/>
<path d="M197 2402 c-12 -3 -16 -11 -13 -29 6 -32 11 -36 44 -41 26 -3 27 -3
7 13 -11 9 -15 14 -8 11 6 -4 14 0 16 6 6 14 11 -17 7 -41 -1 -13 1 -13 14 -2
13 11 14 17 4 30 -28 36 -55 56 -71 53z m26 -19 c3 -5 -2 -15 -11 -23 -14 -13
-15 -12 -9 2 3 9 1 19 -6 22 -7 2 -5 5 5 5 9 1 19 -2 21 -6z"/>
<path d="M2017 2370 c-6 -16 -14 -30 -17 -30 -3 0 -18 11 -33 25 -28 27 -39
18 -11 -9 8 -9 13 -16 9 -16 -3 0 2 -15 12 -32 9 -18 16 -37 14 -42 -1 -5 4
-4 13 3 17 14 27 2 22 -25 -3 -14 2 -19 18 -20 13 -1 23 4 23 12 0 9 -8 13
-21 9 -12 -3 -15 -2 -8 1 6 3 10 10 7 15 -4 5 2 6 11 2 12 -4 15 -3 10 6 -5 7
-15 10 -23 7 -9 -4 -11 -2 -7 6 5 7 3 8 -6 3 -10 -6 -11 -4 -4 6 11 18 11 41
0 57 -5 7 -6 15 -2 19 3 3 6 1 6 -5 0 -7 5 -12 12 -12 9 0 9 3 0 12 -8 8 -9
15 -1 25 9 10 8 13 -1 13 -6 0 -17 -13 -23 -30z m-3 -58 c-4 -34 -8 -35 -26
-4 -16 26 -15 27 6 27 18 0 22 -5 20 -23z"/>
<path d="M147 2329 c-9 -21 -17 -44 -17 -49 0 -6 -4 -10 -10 -10 -5 0 -10 -4
-10 -9 0 -6 8 -9 18 -9 9 0 23 -1 31 -3 7 -2 15 1 18 7 2 7 -4 11 -14 10 -10
0 -18 6 -18 14 0 8 6 14 13 13 6 -2 12 2 12 7 0 6 -4 10 -10 10 -5 0 -10 5
-10 11 0 8 4 8 14 0 11 -9 15 -9 20 1 3 7 4 4 1 -8 -4 -14 0 -21 10 -21 21 0
19 13 -5 37 -11 11 -20 23 -19 26 3 21 -9 7 -24 -27z"/>
<path d="M285 2335 c-21 -29 -30 -34 -41 -24 -8 6 -14 8 -14 3 0 -5 -5 -2 -10
6 -8 12 -10 9 -8 -10 3 -22 -1 -25 -29 -24 -18 0 -33 -4 -33 -9 0 -5 6 -7 13
-4 6 2 22 0 35 -4 14 -5 21 -5 18 0 -4 5 3 7 14 4 16 -4 19 -2 14 13 -4 14 -3
15 4 6 7 -11 14 -8 31 14 22 28 52 42 48 22 -1 -6 4 -13 11 -15 7 -3 11 1 10
9 -2 7 4 13 12 13 10 0 14 -9 13 -27 -2 -26 -2 -26 27 -10 21 12 26 20 19 29
-6 6 -16 10 -24 7 -7 -3 -16 3 -20 15 -3 12 -11 21 -16 21 -6 0 -8 -4 -4 -9 3
-5 1 -12 -4 -15 -13 -8 -42 4 -35 15 14 23 -6 5 -31 -26z"/>
<path d="M430 2360 c0 -5 6 -10 13 -10 9 0 8 -3 -2 -9 -7 -5 -10 -14 -7 -20 4
-6 -4 -16 -18 -23 -26 -11 -35 -28 -16 -28 6 0 10 4 10 8 0 5 12 14 26 21 22
10 32 8 61 -9 20 -11 38 -19 40 -16 3 2 -5 10 -18 17 -21 11 -21 13 -6 24 16
11 15 13 -8 13 -15 0 -22 -5 -18 -12 4 -7 1 -6 -9 1 -8 7 -18 9 -22 5 -5 -4
-7 0 -6 8 4 26 0 40 -10 40 -5 0 -10 -4 -10 -10z"/>
<path d="M2053 2348 c-13 -38 -10 -52 17 -70 33 -23 35 -23 36 7 1 14 -1 23
-5 21 -11 -7 -36 12 -27 21 5 4 11 2 13 -5 3 -9 9 -7 21 6 10 9 14 13 10 8
-15 -20 -8 -29 10 -13 17 15 20 15 38 1 10 -8 14 -13 7 -10 -6 4 -14 3 -17 -2
-3 -5 14 -20 37 -35 22 -15 35 -27 28 -27 -7 0 -9 -5 -6 -10 4 -7 13 -7 24 0
12 6 22 5 31 -3 10 -10 12 -8 6 8 -5 15 -4 17 4 9 6 -6 12 -21 13 -32 1 -15 7
-20 21 -18 24 4 34 25 10 22 -22 -1 -28 18 -11 36 18 18 19 65 1 72 -10 4 -11
0 -5 -18 14 -36 -2 -53 -50 -51 -24 1 -45 7 -47 13 -2 7 -10 12 -19 12 -10 0
-12 6 -8 19 4 14 0 21 -15 26 -11 3 -20 10 -20 15 0 5 -10 7 -22 4 -53 -12
-66 -11 -61 2 3 8 3 14 0 14 -3 0 -9 -10 -14 -22z m32 -66 c-3 -3 -11 0 -18 7
-9 10 -8 11 6 5 10 -3 15 -9 12 -12z"/>
<path d="M2339 2345 c-4 -31 -3 -41 4 -46 4 -3 -2 -17 -13 -31 -23 -29 -25
-38 -9 -38 5 0 8 4 5 9 -10 16 21 20 42 5 13 -9 23 -11 27 -4 3 5 0 10 -8 10
-10 0 -13 7 -10 20 3 12 0 20 -7 20 -7 0 -10 -7 -5 -17 5 -14 4 -15 -6 -6 -8
8 -9 16 -2 25 7 9 5 21 -3 38 -8 14 -14 21 -15 15z"/>
<path d="M267 2286 c-25 -25 -42 -36 -53 -32 -10 4 -25 -1 -36 -11 -23 -20
-27 -20 -40 -1 -7 9 -8 7 -5 -9 3 -13 0 -26 -5 -30 -7 -3 -8 -1 -4 5 4 7 2 12
-4 12 -6 0 -8 4 -5 10 3 5 0 7 -8 4 -13 -5 -15 -10 -19 -54 -1 -11 -5 -20 -9
-20 -3 0 -11 -12 -17 -26 -7 -14 -8 -23 -2 -19 15 10 12 -11 -4 -24 -8 -7 -13
-21 -11 -32 2 -10 -2 -19 -8 -19 -7 0 -6 -4 3 -10 24 -15 32 -12 20 10 -7 13
-7 20 -1 20 6 0 8 8 5 18 -5 15 -4 15 6 2 10 -13 11 -12 6 5 -5 18 -5 18 7 3
12 -15 14 -15 26 4 11 18 11 20 -3 15 -10 -4 -20 1 -25 12 -12 22 -5 32 16 24
13 -5 13 -2 4 15 -13 24 -4 62 10 40 7 -10 12 -10 26 -1 10 6 17 16 16 21 -1
6 8 9 21 8 18 -2 23 1 19 13 -4 12 -3 13 5 3 5 -8 13 -13 18 -13 5 0 9 -7 9
-16 0 -9 5 -18 12 -20 7 -3 11 3 9 14 -2 10 2 30 10 43 7 14 13 19 14 13 0 -7
5 -13 11 -13 5 0 7 4 4 10 -4 6 1 7 12 4 16 -5 16 -4 -1 10 -11 9 -16 16 -10
17 5 0 16 2 25 4 17 3 20 -17 6 -31 -4 -4 -7 -14 -7 -23 0 -12 2 -12 13 2 11
15 15 15 41 2 26 -14 28 -13 22 1 -5 13 -4 14 7 6 8 -7 18 -8 22 -4 5 4 5 1 1
-5 -4 -8 -2 -13 6 -13 8 0 9 -3 3 -8 -17 -12 -16 -33 1 -30 9 2 19 -2 21 -8 2
-6 -9 -11 -27 -11 -17 0 -26 4 -19 7 7 5 8 10 1 14 -15 9 -25 -11 -14 -30 7
-12 11 -13 17 -5 5 9 10 9 20 1 17 -14 29 4 31 45 1 17 -1 24 -3 18 -3 -7 -8
-13 -12 -13 -4 0 -8 6 -8 13 0 6 -4 20 -8 30 -6 15 -4 18 11 17 33 -4 54 0 54
9 0 20 -35 21 -63 1 -26 -20 -30 -20 -53 -6 -13 9 -24 12 -24 7 0 -5 6 -12 13
-14 9 -4 9 -6 0 -6 -22 -2 -26 22 -7 37 18 14 18 14 -2 8 -13 -4 -28 -1 -35 6
-12 11 -21 6 -52 -26z m203 0 c0 -3 -4 -8 -10 -11 -5 -3 -10 -1 -10 4 0 6 5
11 10 11 6 0 10 -2 10 -4z"/>
<path d="M2131 2316 c-8 -10 -8 -16 3 -25 11 -9 14 -7 14 14 0 29 -2 30 -17
11z"/>
<path d="M2110 2279 c0 -5 5 -7 10 -4 6 3 11 1 11 -4 1 -6 2 -16 3 -23 0 -6 7
-13 15 -16 9 -3 11 0 5 9 -6 11 -5 12 8 2 8 -7 18 -10 21 -6 4 3 7 1 7 -5 0
-7 4 -12 9 -12 17 0 7 40 -11 46 -10 3 -18 10 -18 15 0 6 -5 7 -11 3 -8 -4 -3
-12 12 -20 13 -7 19 -13 13 -14 -6 0 -23 9 -37 20 -28 23 -37 25 -37 9z"/>
<path d="M2082 2248 c10 -6 10 -8 -2 -8 -13 0 -13 -1 0 -10 19 -12 33 -13 25
-1 -3 6 2 14 11 19 12 6 8 9 -16 9 -20 0 -26 -3 -18 -9z"/>
<path d="M266 2239 c2 -4 -2 -9 -8 -11 -7 -3 1 -5 19 -5 19 0 29 5 27 12 -3 6
-13 11 -24 11 -10 0 -17 -3 -14 -7z"/>
<path d="M312 2214 c-12 -19 -19 -34 -15 -34 12 0 35 16 36 26 1 5 9 7 16 6
13 -3 13 -1 1 15 -8 10 -15 19 -15 20 0 1 -10 -14 -23 -33z"/>
<path d="M2344 2236 c9 -28 -11 -45 -47 -41 -26 3 -28 2 -14 -6 9 -6 23 -7 30
-4 6 4 4 0 -6 -8 -11 -9 -14 -18 -8 -21 5 -4 17 4 25 16 9 12 16 17 16 11 0
-7 7 -10 15 -7 8 4 12 10 9 15 -3 5 -11 6 -17 3 -7 -4 -8 -3 -4 2 5 5 14 9 20
9 7 0 12 6 12 13 0 6 -4 12 -9 11 -5 0 -13 5 -18 13 -7 9 -8 8 -4 -6z"/>
<path d="M359 2226 c14 -17 -2 -32 -21 -20 -7 4 -8 3 -4 -4 9 -15 -28 -33 -51
-26 -17 5 -17 5 0 -6 9 -6 14 -16 11 -22 -5 -8 -1 -9 10 -5 10 4 20 7 22 7 2
0 4 7 4 16 0 10 5 14 16 10 10 -4 13 -2 8 6 -4 6 -3 8 3 5 6 -4 16 0 23 8 7 8
16 13 19 10 4 -2 8 2 8 10 0 18 -17 20 -17 3 0 -7 -5 -5 -11 5 -5 9 -15 17
-21 17 -7 0 -7 -5 1 -14z"/>
<path d="M2118 2232 c11 -7 11 -10 -2 -15 -9 -4 -23 -4 -32 0 -11 4 -15 2 -12
-7 5 -17 38 -22 38 -7 0 7 5 4 11 -5 5 -10 15 -18 20 -18 6 0 7 6 2 13 -4 6
-8 18 -8 26 0 8 -7 16 -15 18 -12 4 -12 3 -2 -5z"/>
<path d="M2253 2220 c1 -22 6 -24 24 -12 9 6 7 11 -7 20 -16 10 -18 9 -17 -8z"/>
<path d="M210 2219 c0 -6 -8 -8 -19 -4 -13 4 -25 -2 -40 -21 -23 -29 -27 -44
-10 -44 5 0 7 4 4 10 -4 6 1 7 12 3 16 -6 17 -5 3 12 -12 15 -12 17 -1 10 8
-5 12 -4 8 1 -7 12 38 12 49 1 5 -4 0 -5 -11 -1 -17 7 -18 5 -8 -7 7 -9 14
-25 16 -37 4 -24 17 -42 17 -23 0 8 7 11 18 7 11 -4 9 0 -6 12 -14 11 -21 24
-17 34 4 9 2 19 -4 22 -6 4 -8 13 -4 21 3 8 2 15 -1 15 -3 0 -6 -5 -6 -11z"/>
<path d="M2152 2218 c-8 -8 -8 -15 -1 -24 14 -17 -8 -29 -26 -14 -15 12 -20 4
-16 -22 0 -5 -4 -8 -10 -8 -6 0 -8 9 -3 22 6 21 6 22 -16 7 -13 -8 -24 -23
-26 -32 -2 -14 3 -16 24 -11 15 4 37 6 49 6 12 0 22 3 21 7 -2 18 3 22 16 12
11 -9 15 -8 20 5 4 11 2 15 -7 11 -8 -3 -14 1 -14 8 0 8 7 11 15 7 11 -4 13
-1 7 8 -5 9 -4 11 4 6 6 -4 9 -11 6 -16 -3 -4 2 -11 11 -14 12 -5 14 -1 10 17
-3 12 -3 16 0 9 3 -6 11 -9 16 -6 7 5 8 2 3 -6 -5 -8 -4 -11 1 -7 6 3 16 1 24
-5 13 -8 13 -9 -1 -5 -24 8 -42 -8 -46 -40 -4 -27 -4 -27 11 -8 10 13 14 14
11 4 -4 -10 0 -16 10 -16 19 0 19 11 0 31 -14 13 -13 15 5 13 11 -1 20 -5 20
-9 0 -4 5 -8 10 -8 18 0 6 34 -15 47 -11 6 -20 17 -20 25 -1 7 -7 11 -15 9
-30 -8 -55 -8 -61 0 -3 5 -10 4 -17 -3z m-68 -64 c3 -8 2 -12 -4 -9 -6 3 -10
10 -10 16 0 14 7 11 14 -7z"/>
<path d="M2385 2213 c-5 -10 -10 -29 -12 -43 -3 -21 -2 -22 7 -7 6 9 16 17 23
17 8 0 8 -3 -2 -9 -9 -6 -10 -11 -2 -15 6 -4 11 -2 11 4 0 6 5 8 12 4 7 -5 8
-3 2 7 -4 8 -9 20 -11 28 -3 25 -20 33 -28 14z m19 -11 c3 -5 -1 -9 -9 -9 -8
0 -12 4 -9 9 3 4 7 8 9 8 2 0 6 -4 9 -8z"/>
<path d="M262 2213 c-6 -2 -10 -8 -7 -13 3 -4 -2 -13 -10 -20 -19 -16 -19 -30
-1 -30 8 0 17 -7 20 -16 3 -9 11 -12 18 -8 10 6 11 5 1 -8 -20 -24 -2 -29 19
-5 11 12 17 17 14 10 -4 -6 -2 -14 3 -17 5 -3 12 6 16 21 6 24 8 26 16 10 6
-9 7 -22 4 -27 -9 -15 8 -12 35 7 22 15 23 15 12 1 -10 -13 -10 -18 -1 -24 7
-4 9 -3 5 4 -3 5 0 13 6 16 9 3 7 9 -6 20 -11 9 -25 16 -30 16 -6 0 -4 -5 4
-10 8 -5 10 -10 4 -10 -18 0 -24 12 -13 26 8 10 6 13 -10 11 -12 -1 -23 -9
-26 -18 -6 -19 -49 -19 -68 0 -9 9 -7 11 8 5 19 -6 19 -6 3 7 -16 13 -12 42 6
40 9 -1 9 13 -1 15 -4 1 -14 0 -21 -3z"/>
<path d="M105 2173 c12 -31 10 -38 -7 -37 -10 1 -14 -4 -11 -12 4 -11 9 -12
18 -4 9 8 14 7 18 -3 6 -15 -19 -52 -36 -52 -6 0 -13 -9 -15 -20 -3 -16 -1
-17 7 -5 9 13 11 13 11 -1 0 -9 9 -24 20 -34 24 -22 27 -9 4 16 -15 17 -15 21
2 46 11 16 19 35 19 43 1 8 7 14 14 12 7 -1 10 2 5 9 -5 8 -3 9 7 4 8 -5 11
-4 6 1 -5 5 -16 9 -25 9 -10 0 -16 7 -16 17 1 9 -5 19 -13 23 -11 4 -13 1 -8
-12z"/>
<path d="M174 2158 c3 -28 -12 -50 -27 -41 -6 4 -7 1 -3 -6 5 -7 1 -20 -7 -29
-14 -15 -14 -19 0 -37 l15 -20 -2 20 c-4 35 0 46 12 39 7 -5 8 -3 3 6 -6 9 -4
11 5 5 10 -6 12 -4 6 11 -4 10 -4 15 0 12 3 -4 12 -2 19 5 10 9 9 14 -4 25 -9
7 -10 10 -2 6 9 -4 12 -2 9 6 -8 24 -25 22 -24 -2z"/>
<path d="M2311 2149 c-13 -11 -29 -18 -35 -16 -6 3 -12 -6 -12 -19 -1 -15 3
-21 12 -17 8 3 12 9 9 13 -3 5 0 12 6 16 8 5 9 3 4 -6 -5 -8 -3 -11 6 -8 8 3
14 11 14 19 0 8 8 13 18 11 11 -2 15 2 11 13 -7 18 -4 19 -33 -6z"/>
<path d="M2352 2155 c2 -14 -2 -20 -14 -19 -9 1 -14 -4 -12 -11 6 -14 -52 -41
-78 -37 -10 2 -18 -2 -18 -8 0 -6 5 -8 12 -4 6 4 8 3 5 -3 -4 -6 0 -17 9 -24
14 -11 15 -10 12 7 -2 15 2 18 19 17 13 -2 22 2 20 8 -3 17 28 19 56 4 23 -12
25 -11 24 5 -1 11 -8 18 -17 17 -8 -1 -15 3 -15 8 0 6 5 10 10 10 6 0 15 3 20
7 11 7 57 -26 49 -35 -3 -3 -1 -8 5 -12 12 -7 15 18 4 29 -5 4 -8 13 -8 19 0
7 -15 12 -33 12 -18 0 -37 7 -43 15 -8 12 -9 11 -7 -5z"/>
<path d="M2151 2153 c4 -21 -2 -34 -13 -27 -6 4 -8 3 -4 -4 3 -6 2 -13 -4 -17
-7 -4 -7 -12 0 -25 14 -27 12 -33 -7 -28 -13 4 -18 -2 -19 -19 -1 -12 2 -21 6
-18 13 8 23 -16 12 -27 -8 -8 -6 -15 4 -26 8 -8 18 -12 21 -8 4 3 3 6 -2 6 -4
0 -1 8 6 17 12 15 12 16 -4 10 -11 -4 -16 -3 -12 3 3 5 1 20 -6 32 -6 13 -8
20 -4 16 5 -5 15 2 23 14 14 19 13 22 -2 33 -15 12 -15 13 1 20 10 5 23 7 30
6 6 -1 15 4 19 10 5 8 2 10 -7 5 -8 -4 -5 0 5 8 15 12 16 16 5 16 -8 0 -21 -6
-28 -12 -10 -9 -12 -9 -7 -1 3 6 2 15 -4 18 -6 4 -10 3 -9 -2z"/>
<path d="M2390 2123 c0 -7 6 -13 13 -13 8 0 7 -4 -3 -10 -14 -9 -6 -15 15 -10
6 1 7 -2 3 -6 -5 -4 1 -13 12 -21 22 -16 27 -38 7 -30 -7 3 -22 -2 -32 -10
-20 -14 -20 -15 0 -13 11 1 25 2 31 1 12 -1 15 -31 3 -31 -5 0 -6 -7 -3 -15 6
-14 8 -13 20 2 13 17 14 17 8 1 -3 -10 -2 -18 3 -18 5 0 9 11 9 24 0 17 -4 22
-15 18 -10 -4 -12 -2 -5 9 11 18 6 50 -12 69 -8 8 -23 26 -34 40 -11 14 -19
19 -20 13z"/>
<path d="M188 2096 c-6 -14 -17 -26 -25 -26 -8 0 -6 -7 8 -21 11 -11 18 -27
15 -37 -4 -13 0 -18 14 -19 11 -1 20 2 20 8 0 5 -5 9 -12 9 -6 0 -8 3 -5 7 4
3 1 13 -6 21 -10 13 -9 14 2 8 9 -6 12 -5 9 5 -3 8 -11 13 -17 11 -9 -2 -9 3
-1 18 6 11 15 18 21 15 5 -4 9 -2 9 4 0 22 -21 20 -32 -3z"/>
<path d="M227 2093 c-8 -17 -13 -20 -19 -11 -5 9 -8 10 -8 1 0 -6 4 -14 9 -17
12 -8 41 4 41 16 0 5 -5 6 -12 2 -7 -4 -8 -3 -4 5 4 6 11 9 16 6 4 -3 10 1 13
8 9 24 -25 14 -36 -10z"/>
<path d="M296 2095 c-3 -9 -10 -14 -15 -10 -13 7 -67 -44 -62 -59 2 -6 4 -21
5 -34 1 -24 18 -32 25 -11 2 7 -1 9 -9 4 -9 -5 -11 -4 -6 4 4 6 11 9 16 6 4
-3 11 2 14 11 5 12 1 14 -17 9 -17 -5 -19 -4 -7 4 14 10 7 15 -13 12 -5 -1 -6
3 -2 9 3 6 11 8 16 5 5 -4 12 1 15 9 3 9 11 16 17 16 6 0 7 -3 4 -7 -4 -3 -1
-13 6 -21 10 -13 9 -14 -2 -8 -9 6 -12 5 -9 -4 2 -7 14 -15 26 -17 22 -3 22
-2 6 21 -12 19 -13 29 -5 43 7 12 10 13 11 4 0 -11 3 -11 17 0 14 12 15 12 9
0 -7 -10 -3 -12 15 -6 13 3 20 3 14 -2 -13 -10 -18 -36 -6 -29 5 4 11 0 14 -6
4 -10 7 -10 18 0 12 11 12 13 -1 10 -10 -2 -15 5 -14 23 1 23 -3 25 -30 24
-17 -1 -34 2 -37 7 -3 5 -9 2 -13 -7z"/>
<path d="M2154 2101 c-2 -2 1 -10 7 -17 7 -9 6 -20 -7 -39 -16 -24 -16 -27 0
-44 12 -13 14 -21 6 -26 -5 -3 -8 -11 -5 -16 4 -5 0 -12 -9 -15 -8 -3 -12 -12
-9 -20 3 -8 0 -14 -7 -14 -9 0 -9 -4 1 -16 8 -9 14 -33 14 -52 0 -23 5 -37 15
-39 13 -4 13 -3 0 7 -13 10 -13 11 3 6 9 -3 17 -1 17 4 0 5 -8 14 -17 19 -12
7 -14 10 -4 11 11 0 11 3 0 17 -10 11 -10 14 -1 9 7 -4 12 -1 12 8 0 9 -3 15
-7 14 -5 -2 -9 2 -9 7 -1 6 3 9 8 7 6 -2 8 6 5 17 -3 13 -1 18 8 15 16 -7 29
12 15 21 -5 3 -10 1 -10 -5 0 -6 -5 -8 -11 -4 -16 10 10 24 30 16 14 -5 14 -3
2 11 -7 9 -16 15 -20 13 -3 -2 -12 3 -20 11 -12 13 -11 14 9 8 15 -5 20 -4 16
3 -4 6 0 17 7 24 12 10 11 15 -3 28 -10 9 -10 11 -1 5 12 -8 13 -6 8 8 -4 10
-3 16 2 13 16 -10 19 -46 6 -59 -11 -11 -9 -16 7 -26 15 -9 19 -9 17 1 -1 7
-1 20 0 28 1 12 4 11 16 -3 7 -11 11 -26 7 -35 -5 -15 -4 -15 11 -3 9 7 14 17
11 22 -3 5 0 9 5 9 6 0 11 5 11 11 0 8 -4 8 -13 0 -17 -14 -60 28 -52 51 4 11
-2 14 -30 14 -20 -1 -38 -3 -41 -5z m19 -56 c-3 -9 -8 -14 -10 -11 -3 3 -2 9
2 15 9 16 15 13 8 -4z"/>
<path d="M2313 2076 c1 -6 -9 -10 -23 -9 -21 2 -23 1 -7 -8 22 -13 22 -21 -4
-53 -17 -21 -24 -24 -35 -15 -8 6 -14 8 -14 3 0 -4 -5 -3 -12 4 -7 7 -17 12
-22 12 -6 -1 0 -9 13 -20 12 -11 27 -17 32 -14 5 3 9 -1 9 -8 1 -7 13 1 28 18
29 33 68 37 100 12 13 -11 15 -11 9 4 -6 18 26 45 48 40 6 -1 1 5 -9 13 -23
18 -36 19 -36 4 0 -5 5 -7 12 -3 7 4 8 3 4 -5 -4 -6 -12 -8 -18 -5 -6 4 -8 2
-5 -3 12 -19 -27 -25 -40 -7 -7 10 -13 12 -13 6 0 -7 -4 -12 -9 -12 -5 0 -8 8
-6 18 2 9 4 19 4 22 1 2 6 -1 13 -8 18 -18 30 -14 17 6 -13 20 -39 26 -36 8z"/>
<path d="M2358 2068 c8 -8 9 -15 1 -25 -7 -8 -8 -13 -1 -13 12 0 24 29 16 41
-3 5 -10 9 -17 9 -8 0 -8 -3 1 -12z"/>
<path d="M301 2064 c-1 -6 9 -23 20 -38 17 -21 19 -30 10 -39 -10 -9 -16 -8
-27 7 -8 11 -14 16 -14 10 0 -14 18 -39 30 -40 21 -3 22 -4 9 -20 -11 -14 -10
-18 6 -30 18 -13 10 -20 -18 -15 -5 1 -6 -3 -2 -9 3 -6 0 -7 -9 -4 -9 3 -16 2
-16 -4 0 -11 25 -10 36 1 4 4 13 2 20 -4 8 -7 14 -7 19 1 3 5 2 10 -3 10 -5 0
-9 6 -9 13 0 6 -4 20 -8 30 -7 16 6 22 36 19 4 -1 6 14 6 33 -1 25 -7 36 -25
44 -13 6 -21 15 -18 20 3 5 -1 12 -10 15 -8 3 -12 2 -9 -4 3 -6 2 -10 -4 -10
-5 0 -12 6 -14 13 -3 7 -6 8 -6 1z m44 -34 c3 -6 -1 -7 -9 -4 -18 7 -21 14 -7
14 6 0 13 -4 16 -10z m18 -27 c-5 -12 -3 -14 8 -9 8 4 6 1 -4 -7 -14 -11 -15
-16 -5 -20 9 -4 9 -6 1 -6 -6 -1 -14 2 -16 7 -5 8 10 52 17 52 3 0 2 -7 -1
-17z"/>
<path d="M110 2041 c0 -5 6 -14 14 -20 9 -7 13 -26 11 -47 -3 -38 16 -43 22
-5 2 14 -1 20 -8 15 -7 -4 -7 2 1 17 17 33 24 38 16 14 -3 -11 -2 -26 3 -34 6
-9 8 -2 6 20 -4 54 -5 55 -16 37 -5 -9 -16 -15 -24 -12 -8 4 -12 10 -9 15 3 5
0 9 -5 9 -6 0 -11 -4 -11 -9z"/>
<path d="M45 2003 c8 -8 15 -18 15 -23 0 -5 7 -7 15 -4 8 4 12 10 9 15 -3 5
-11 6 -17 3 -8 -4 -7 -2 1 7 11 12 14 12 21 0 5 -8 6 -21 3 -30 -5 -14 -4 -14
12 -2 15 13 16 16 1 30 -8 9 -29 16 -45 17 -25 1 -27 0 -15 -13z"/>
<path d="M260 1980 c-15 -35 -21 -37 -45 -10 -16 18 -20 19 -28 5 -4 -8 -13
-12 -19 -9 -6 4 -8 3 -5 -3 10 -16 -18 -34 -39 -27 -16 5 -16 4 -4 -5 13 -9
13 -11 0 -11 -13 0 -13 -1 0 -10 19 -12 33 -13 25 -1 -3 5 -1 12 4 15 5 4 12
2 16 -4 3 -5 10 -10 16 -10 10 0 8 22 -3 30 -4 3 1 11 12 18 14 8 21 9 26 0 4
-6 3 -8 -4 -4 -6 3 -13 2 -16 -3 -3 -5 1 -11 9 -15 8 -3 15 -1 15 5 0 6 7 6
20 -1 14 -8 19 -17 15 -30 -5 -15 -1 -18 22 -14 15 3 34 5 40 6 9 1 10 5 2 15
-9 10 -8 17 2 30 9 11 10 14 2 9 -8 -4 -20 4 -31 24 l-19 31 -13 -31z m30 -22
c0 -4 -5 -8 -11 -8 -6 0 -3 -8 8 -17 10 -10 12 -13 4 -8 -12 8 -13 6 -7 -10 5
-13 4 -17 -3 -10 -17 17 -21 62 -5 62 8 0 14 -4 14 -9z"/>
<path d="M315 2000 c-3 -5 -1 -10 4 -10 6 0 11 5 11 10 0 6 -2 10 -4 10 -3 0
-8 -4 -11 -10z"/>
<path d="M2282 1979 c-20 -24 -27 -27 -44 -18 -16 8 -23 7 -34 -8 -34 -43 -35
-50 -3 -50 l31 0 -24 14 c-13 8 -15 12 -5 9 11 -3 15 -2 12 4 -11 18 5 31 25
20 21 -11 53 -3 44 11 -6 10 4 12 48 11 24 0 26 2 15 18 -8 14 -13 16 -19 7
-6 -9 -10 -9 -15 -1 -5 7 -16 1 -31 -17z"/>
<path d="M2412 1993 c-7 -10 -10 -12 -6 -4 5 10 3 12 -5 7 -7 -5 -10 -15 -7
-23 3 -8 2 -12 -3 -8 -5 3 -12 -1 -15 -7 -2 -7 -4 -2 -3 11 1 13 -4 26 -13 29
-12 4 -13 3 -2 -10 10 -13 9 -18 -3 -28 -12 -10 -15 -10 -15 1 -1 9 -8 5 -20
-10 -25 -29 -25 -37 -2 -37 9 -1 25 -5 35 -9 13 -5 16 -4 11 9 -3 8 -11 14
-16 13 -6 -1 -13 5 -15 13 -4 13 -3 13 6 0 8 -11 11 -12 11 -2 0 9 7 11 19 7
11 -3 25 1 34 9 13 14 16 12 27 -15 16 -38 25 -43 26 -13 1 13 -2 22 -6 19
-13 -8 -28 25 -23 46 7 24 2 24 -15 2z"/>
<path d="M25 1991 c-3 -6 -3 -21 -1 -36 3 -14 1 -25 -4 -25 -4 0 -7 -18 -5
-40 2 -22 0 -38 -3 -36 -4 2 -7 -34 -7 -80 0 -63 3 -84 13 -84 7 0 11 4 7 9
-3 5 2 17 11 25 9 9 11 16 4 16 -6 0 -9 4 -5 9 3 5 0 13 -6 17 -8 4 -9 3 -5
-4 4 -7 2 -12 -3 -12 -13 0 -15 17 -3 24 23 14 48 -37 28 -57 -12 -11 -11 -16
6 -26 18 -11 20 -11 15 1 -3 8 -1 21 4 29 7 12 9 12 9 0 0 -20 29 18 30 38 0
11 -4 10 -13 -4 -17 -22 -40 -11 -32 14 3 11 0 18 -10 19 -8 1 -22 3 -30 4 -9
1 -11 5 -6 12 5 6 7 19 6 28 -2 12 2 15 13 11 14 -5 13 -2 -3 16 -11 12 -15
22 -10 21 23 -5 28 1 12 13 -13 9 -14 16 -6 27 9 13 10 12 5 -2 -3 -10 -1 -18
4 -18 6 0 10 5 10 12 0 6 3 8 7 5 3 -4 13 -1 22 5 9 7 13 9 9 4 -4 -5 -1 -15
7 -22 7 -8 12 -27 10 -42 -3 -22 1 -28 16 -29 10 -1 19 2 19 8 0 5 -4 9 -8 9
-4 0 -8 9 -9 20 -2 18 0 19 13 5 20 -19 41 -20 25 -1 -8 10 -9 16 -1 21 6 4
10 3 9 -2 -3 -20 2 -27 12 -13 8 12 9 10 4 -7 -5 -18 -3 -22 9 -17 12 4 13 11
6 24 -5 10 -7 20 -2 23 4 2 1 2 -7 0 -7 -2 -21 2 -29 9 -11 9 -14 9 -9 1 11
-17 -9 -26 -32 -14 -11 6 -18 19 -16 28 2 10 4 22 4 26 1 5 6 5 11 2 6 -3 10
-1 10 4 0 16 -7 14 -38 -9 -17 -13 -35 -18 -45 -14 -17 6 -17 7 0 21 17 14 17
14 -1 9 -15 -5 -17 -4 -7 8 8 9 8 16 2 20 -5 4 -12 2 -16 -3z"/>
<path d="M62 1954 c-14 -16 -5 -18 17 -5 7 5 9 11 5 14 -5 3 -15 -1 -22 -9z"/>
<path d="M2296 1952 c-7 -21 -39 -24 -66 -7 -10 6 -12 4 -6 -11 13 -34 11 -39
-11 -37 -14 2 -27 -5 -34 -19 -10 -19 -9 -20 7 -14 33 13 39 11 39 -10 0 -11
6 -28 13 -36 8 -11 9 -18 3 -22 -6 -4 -8 -13 -5 -21 4 -8 10 -12 16 -9 5 3 7
13 4 21 -3 8 -1 11 4 8 6 -3 10 -1 10 4 0 6 -6 11 -12 11 -7 0 -5 5 5 11 9 5
17 15 17 20 0 6 -6 7 -12 2 -26 -15 -38 -12 -28 7 7 13 7 21 0 25 -6 4 -8 11
-4 16 3 5 10 7 15 4 13 -9 11 9 -3 25 -11 12 -10 12 4 2 13 -10 17 -10 22 0 3
7 4 4 1 -8 -4 -14 0 -21 10 -21 10 0 14 6 10 14 -3 8 0 24 6 35 6 11 8 22 6
25 -3 2 -8 -4 -11 -15z"/>
<path d="M2397 1939 c-9 -6 -22 -7 -28 -3 -8 5 -8 1 0 -14 16 -29 15 -30 -24
-31 -62 -3 -65 -4 -55 -16 6 -7 4 -21 -5 -39 -12 -22 -12 -27 -2 -23 19 7 43
-8 28 -17 -6 -4 -11 -2 -11 5 0 8 -4 8 -15 -1 -21 -18 -19 -32 5 -25 14 5 20
2 20 -9 0 -21 16 -20 24 1 4 10 -2 29 -15 46 -16 22 -18 32 -9 40 9 9 15 7 27
-8 l16 -20 -7 20 c-4 11 -8 22 -9 25 -1 3 2 5 8 5 5 0 9 -5 7 -11 -1 -6 5 -11
13 -11 9 0 14 6 11 13 -3 8 5 20 17 29 20 14 17 20 -8 15 -5 -1 -6 2 -2 6 4 4
15 9 23 10 9 1 13 0 10 -3 -3 -3 2 -12 12 -20 16 -12 16 -13 -1 -7 -13 5 -16
2 -11 -9 3 -9 12 -13 20 -10 18 7 18 7 -4 42 -14 23 -21 27 -35 20z m-67 -159
c0 -5 -2 -10 -4 -10 -3 0 -8 5 -11 10 -3 6 -1 10 4 10 6 0 11 -4 11 -10z"/>
<path d="M2466 1931 c-3 -5 -3 -16 0 -24 7 -20 -31 -46 -57 -40 -16 5 -18 8
-7 15 10 8 10 9 -2 5 -8 -2 -15 -10 -16 -18 -3 -44 -4 -45 -14 -29 -7 10 -10
11 -10 2 0 -7 7 -15 15 -18 11 -5 13 -10 5 -19 -5 -6 -7 -14 -5 -17 3 -3 8
-15 10 -28 6 -32 25 -51 45 -45 9 3 28 -3 41 -14 l24 -19 0 81 c0 48 -5 82
-11 84 -7 2 -11 -12 -10 -36 0 -21 5 -37 10 -34 5 4 6 1 2 -5 -5 -9 -13 -9
-26 -2 -25 14 -30 13 -24 -5 4 -8 10 -13 14 -10 14 9 23 -16 11 -28 -9 -9 -11
-7 -6 8 4 12 3 16 -2 9 -9 -12 -54 -14 -47 -2 3 4 -1 8 -8 8 -8 0 -6 5 5 11 9
5 17 15 17 21 0 6 -7 5 -17 -3 -16 -13 -17 -12 -4 4 11 14 11 17 0 17 -11 0
-11 2 1 10 8 5 10 10 3 10 -6 0 -10 7 -9 15 3 23 12 27 26 10 17 -21 36 -19
19 3 -12 15 -12 15 1 5 24 -18 51 8 48 47 -2 33 -13 47 -22 31z m14 -50 c0 -5
-7 -12 -16 -15 -14 -5 -15 -4 -4 9 14 17 20 19 20 6z m7 -166 c0 -8 -4 -12 -9
-9 -5 3 -6 10 -3 15 9 13 12 11 12 -6z"/>
<path d="M203 1918 c9 -5 13 -16 10 -28 -3 -12 0 -20 6 -20 7 0 10 4 7 9 -3 5
1 14 9 21 23 19 18 29 -16 28 -22 -1 -27 -3 -16 -10z"/>
<path d="M70 1901 c0 -7 -4 -9 -10 -6 -6 3 -7 -1 -4 -9 3 -9 1 -16 -5 -16 -8
0 -8 -6 1 -19 7 -11 15 -18 19 -15 4 2 12 -3 17 -12 7 -12 9 -6 8 24 -1 23 -7
47 -14 54 -9 9 -12 9 -12 -1z m17 -31 c2 -20 -8 -26 -20 -13 -4 3 -2 12 4 20
15 17 14 17 16 -7z"/>
<path d="M235 1880 c10 -16 -47 -39 -73 -29 -14 6 -21 5 -17 -1 3 -5 2 -18 -4
-28 -8 -14 -6 -18 11 -19 15 -2 17 1 8 12 -8 10 -8 15 1 21 7 4 10 3 6 -2 -3
-5 2 -18 10 -29 15 -20 15 -20 10 3 -4 16 1 25 15 33 13 7 18 7 14 1 -4 -6 2
-10 14 -9 11 1 20 7 20 15 0 8 -5 10 -12 6 -10 -6 -10 -4 0 7 15 16 16 29 1
29 -5 0 -8 -4 -4 -10z"/>
<path d="M257 1877 c-3 -9 1 -18 10 -21 23 -9 29 2 11 20 -13 14 -16 14 -21 1z"/>
<path d="M2249 1877 c5 -5 7 -16 4 -24 -5 -13 -3 -13 14 -2 15 9 18 15 10 24
-6 6 -17 12 -24 12 -9 0 -10 -4 -4 -10z"/>
<path d="M296 1854 c-3 -9 -13 -14 -20 -11 -8 3 -17 0 -20 -8 -3 -9 -16 -12
-38 -10 -20 3 -28 1 -20 -4 8 -4 13 -12 13 -17 -1 -5 8 -10 19 -10 11 -1 20 4
20 11 0 16 28 28 42 19 6 -4 17 2 25 12 10 13 14 14 12 4 -2 -8 2 -25 9 -37
11 -20 10 -22 -4 -16 -9 3 -20 0 -25 -8 -12 -20 -11 -26 6 -26 10 0 14 6 10
15 -4 12 -2 12 8 4 19 -16 28 -4 21 24 -4 16 -2 24 7 24 7 0 -2 11 -21 25 -40
30 -36 29 -44 9z m14 -14 c0 -5 -5 -10 -11 -10 -5 0 -7 5 -4 10 3 6 8 10 11
10 2 0 4 -4 4 -10z"/>
<path d="M2210 1860 c0 -5 -3 -9 -7 -9 -30 5 -37 -3 -17 -19 l22 -18 -28 -13
c-16 -6 -31 -20 -35 -29 -5 -13 -3 -14 6 -5 6 6 18 9 27 6 10 -4 13 -2 8 5 -3
6 1 15 11 21 15 8 30 71 17 71 -2 0 -4 -4 -4 -10z"/>
<path d="M2310 1839 c0 -5 5 -7 10 -4 6 3 10 8 10 11 0 2 -4 4 -10 4 -5 0 -10
-5 -10 -11z"/>
<path d="M2408 1834 c6 -12 9 -24 5 -27 -3 -4 6 -11 21 -17 38 -14 45 -12 16
6 -20 12 -21 14 -4 9 14 -4 21 -1 21 10 0 10 -6 14 -15 10 -8 -3 -24 3 -35 12
-19 17 -20 17 -9 -3z"/>
<path d="M45 1816 l20 -16 -20 7 c-11 3 -17 3 -14 -1 10 -10 59 -18 59 -9 0
16 -16 28 -40 31 -24 4 -25 3 -5 -12z"/>
<path d="M95 1797 c-27 -45 -28 -47 -15 -47 6 0 9 4 6 9 -3 5 1 11 9 15 26 10
34 -25 11 -48 -11 -11 -25 -20 -29 -18 -5 1 -6 -2 -2 -8 11 -17 -5 -32 -21
-19 -10 8 -18 9 -27 0 -8 -6 -18 -7 -22 -3 -5 4 -5 1 0 -7 7 -13 14 -61 18
-128 1 -18 5 -33 9 -33 4 0 5 -7 2 -15 -4 -8 -1 -22 6 -30 6 -8 9 -19 5 -25
-3 -5 -2 -10 3 -10 6 0 8 -10 5 -22 -4 -19 -3 -20 6 -8 6 8 8 22 5 32 -2 9 0
19 6 23 12 7 4 25 -11 25 -6 0 -7 -5 -3 -12 4 -6 3 -8 -3 -5 -6 4 -9 23 -7 42
2 26 0 34 -9 28 -7 -4 -6 1 2 11 10 11 11 20 4 24 -5 4 -9 21 -8 39 1 18 -2
30 -5 28 -4 -2 -7 2 -7 9 0 9 7 12 16 8 14 -5 14 -4 1 14 -14 18 -14 18 2 5
10 -7 15 -17 12 -22 -3 -5 2 -6 10 -3 9 3 13 11 9 17 -4 6 -1 7 7 2 9 -5 11
-4 6 3 -5 8 -2 10 8 6 9 -3 16 -1 16 6 0 6 -5 8 -10 5 -6 -4 -5 5 2 20 7 16
14 21 18 14 11 -17 21 20 11 39 -4 9 -6 23 -3 31 3 10 0 11 -9 5 -12 -6 -12
-5 -1 8 7 9 9 19 5 21 -5 3 -17 -9 -28 -26z"/>
<path d="M260 1800 c-7 -14 -19 -17 -54 -15 -25 2 -51 7 -57 11 -8 4 -9 3 -5
-4 4 -7 2 -12 -4 -12 -8 0 -8 -6 0 -20 13 -24 -4 -65 -22 -54 -8 5 -9 1 -5
-10 5 -12 -3 -27 -25 -49 -18 -18 -29 -26 -24 -20 5 9 2 11 -8 7 -9 -3 -13
-15 -10 -32 3 -15 6 -35 7 -44 1 -10 7 -20 13 -22 13 -5 13 11 0 32 -5 8 -3
11 5 10 7 -2 14 6 16 17 3 16 2 17 -6 5 -16 -22 -13 -6 4 26 8 16 15 23 15 16
0 -7 5 -10 11 -6 8 5 8 1 0 -14 -15 -27 -14 -32 4 -26 8 3 13 11 12 17 -1 7 7
12 17 12 11 0 21 5 23 11 2 6 -4 11 -14 11 -36 0 -44 3 -37 14 4 8 9 7 16 -2
7 -10 8 -9 4 6 -3 11 -1 27 4 35 9 13 13 12 30 -9 15 -17 20 -19 20 -8 0 9
-10 23 -22 31 -12 9 -18 16 -12 16 5 0 15 -5 21 -11 9 -9 12 -7 10 10 -1 13
-6 20 -14 17 -7 -3 -15 0 -19 6 -4 7 -3 8 4 4 7 -4 12 -3 12 3 0 5 -6 12 -12
14 -10 4 -10 6 -1 6 6 1 15 -4 18 -9 5 -8 12 -7 23 2 15 12 16 11 3 -4 -13
-17 -2 -26 13 -10 4 4 11 7 14 7 4 1 22 9 39 18 27 14 32 15 27 2 -3 -8 -9
-13 -13 -11 -4 3 -7 -4 -7 -14 0 -11 6 -22 14 -25 9 -3 12 1 7 15 -4 12 1 26
14 39 12 12 20 21 19 22 -34 9 -59 5 -68 -11z"/>
<path d="M247 1763 c-3 -5 -4 -19 -3 -33 1 -23 4 -25 56 -25 48 0 55 2 55 20
0 14 -7 20 -25 21 l-24 1 23 -18 c13 -11 18 -19 13 -19 -6 0 -14 5 -17 10 -3
6 -11 10 -16 10 -6 0 -7 -4 -4 -10 3 -5 1 -10 -4 -10 -6 0 -11 5 -11 10 0 6
-7 10 -16 10 -11 0 -14 6 -9 20 6 19 -9 29 -18 13z m18 -43 c3 -5 1 -10 -4
-10 -6 0 -11 5 -11 10 0 6 2 10 4 10 3 0 8 -4 11 -10z"/>
<path d="M2416 1761 c-3 -5 1 -11 9 -14 9 -4 12 -1 8 9 -6 16 -10 17 -17 5z"/>
<path d="M208 1746 c-15 -11 -15 -13 2 -24 14 -8 19 -8 23 2 9 22 -6 36 -25
22z"/>
<path d="M195 1710 c-3 -5 -1 -10 5 -10 8 0 8 -6 0 -20 -6 -11 -16 -17 -25
-14 -8 4 -13 10 -10 14 3 5 1 11 -4 14 -5 4 -12 2 -15 -3 -8 -13 4 -42 14 -36
5 3 11 1 15 -5 4 -6 11 -7 17 -4 7 4 8 2 4 -4 -4 -7 -2 -12 3 -12 6 0 10 10
10 23 -1 12 1 29 5 38 8 19 -9 35 -19 19z"/>
<path d="M221 1684 c-7 -16 -7 -24 0 -24 6 0 6 -7 -1 -20 -8 -14 -17 -19 -30
-15 -10 3 -21 1 -24 -4 -4 -6 -12 -9 -19 -7 -7 1 -9 1 -4 -1 4 -3 7 -10 7 -15
0 -6 -3 -9 -6 -5 -10 10 -61 -20 -61 -37 0 -8 4 -13 9 -10 5 3 5 10 2 16 -4 7
-2 8 4 4 6 -4 9 -13 5 -21 -4 -11 -1 -13 11 -9 12 5 13 10 5 26 -8 15 -8 19 0
14 6 -4 11 -1 11 6 0 8 5 6 11 -5 10 -17 29 -15 29 4 0 6 -5 7 -11 3 -8 -4 -8
0 0 15 14 25 23 28 14 4 -6 -15 -4 -16 8 -6 9 7 25 14 37 16 23 3 43 17 25 17
-6 0 -10 13 -9 29 0 21 4 27 12 20 7 -6 15 -6 17 -1 3 4 -2 13 -12 19 -15 10
-20 8 -30 -13z"/>
<path d="M244 1653 c2 -9 9 -19 16 -21 8 -3 10 0 5 8 -5 9 -4 11 4 6 6 -4 9
-11 6 -16 -3 -4 2 -11 11 -14 12 -5 14 -1 9 17 -3 12 -3 18 2 12 9 -11 43 -16
43 -6 -1 16 -21 35 -27 26 -11 -15 -31 -17 -53 -5 -15 8 -18 6 -16 -7z"/>
<path d="M343 1641 c0 -20 4 -28 13 -24 11 4 11 10 2 26 -6 12 -12 23 -13 25
-1 1 -2 -11 -2 -27z"/>
<path d="M247 1614 c-8 -9 1 -24 14 -24 6 0 7 5 3 11 -5 8 -1 8 14 0 14 -8 19
-17 15 -33 -5 -23 -5 -23 10 -3 12 16 18 17 28 8 10 -10 9 -16 -1 -28 -12 -14
-10 -15 11 -12 19 4 25 1 25 -14 0 -10 -3 -19 -6 -19 -3 0 -6 -11 -6 -25 -1
-13 3 -23 10 -22 6 1 10 -6 10 -16 -2 -13 3 -16 20 -12 11 2 15 2 9 -1 -10 -4
-10 -11 -2 -26 8 -15 8 -19 0 -14 -6 4 -11 2 -11 -4 0 -7 7 -9 16 -6 9 3 18 6
21 6 3 0 0 7 -7 15 -9 10 -9 15 -1 15 8 0 8 5 -1 19 -7 11 -17 19 -22 18 -7
-1 -11 18 -10 45 0 38 -4 49 -18 54 -19 6 -24 29 -8 39 22 13 8 23 -32 23 -24
0 -50 3 -59 6 -8 4 -18 4 -22 0z"/>
<path d="M212 1589 c-11 -18 -10 -19 13 -15 15 3 24 0 22 -7 -1 -7 4 -12 11
-12 6 0 12 4 11 9 0 5 5 13 13 18 9 6 6 7 -8 3 -13 -3 -28 0 -36 9 -13 12 -16
11 -26 -5z"/>
<path d="M175 1574 c-13 -20 -19 -23 -31 -13 -8 7 -14 7 -14 1 0 -13 19 -20
47 -17 12 1 20 -2 17 -7 -3 -4 0 -8 5 -8 13 0 14 10 1 30 -5 9 -5 19 2 27 7 8
7 13 0 13 -5 0 -17 -12 -27 -26z"/>
<path d="M219 1564 c-1 -5 -2 -16 -3 -24 0 -8 -9 -14 -18 -14 -9 1 -19 -4 -22
-11 -3 -8 4 -13 17 -12 12 0 31 -3 42 -7 14 -5 12 -3 -4 7 -15 9 -20 17 -12
21 6 4 11 2 11 -4 0 -6 5 -8 10 -5 6 4 7 12 3 18 -3 7 3 4 14 -5 11 -10 23
-18 28 -18 4 0 1 8 -6 18 -12 15 -12 16 2 5 9 -7 19 -10 22 -6 4 3 7 1 7 -5 0
-7 5 -12 11 -12 8 0 8 4 0 14 -8 10 -9 16 -1 21 13 8 13 25 -1 25 -5 0 -7 -4
-4 -10 3 -5 3 -10 -2 -11 -4 0 -19 -2 -33 -4 -14 -1 -33 4 -42 13 -10 8 -19
11 -19 6z"/>
<path d="M120 1530 c-7 -4 -20 -6 -28 -2 -11 4 -13 2 -7 -9 7 -12 6 -12 -7 -1
-9 7 -19 9 -21 5 -3 -5 8 -16 25 -26 25 -14 29 -15 25 -2 -4 9 2 19 15 26 16
9 19 8 13 -2 -6 -8 -4 -11 7 -7 8 4 15 1 15 -7 0 -7 -6 -11 -13 -8 -7 2 -11
-3 -11 -13 3 -25 -16 -27 -43 -4 -13 11 -28 20 -34 20 -6 0 0 -7 12 -16 18
-12 20 -19 12 -29 -7 -8 -9 -18 -6 -24 3 -5 2 -20 -3 -33 -6 -17 -3 -38 11
-73 10 -28 21 -59 23 -69 3 -11 8 -22 12 -25 5 -3 9 -12 11 -19 1 -7 14 -25
27 -38 29 -29 33 -43 8 -23 -16 11 -16 11 -5 -1 7 -8 25 -15 40 -16 21 -1 28
3 29 18 2 16 -1 17 -13 7 -20 -16 -34 3 -27 35 5 18 4 19 -8 6 -8 -8 -13 -13
-11 -11 1 3 -8 11 -20 18 l-23 13 23 6 c12 3 22 10 22 15 0 12 -17 11 -25 -1
-4 -6 -11 -5 -20 3 -11 10 -9 14 8 24 12 6 26 9 31 5 5 -3 7 3 3 14 -7 18 -6
18 9 -1 16 -20 16 -20 11 1 -7 31 7 51 26 36 12 -10 15 -8 15 13 0 20 -3 23
-14 14 -11 -9 -18 -8 -30 2 -13 11 -15 11 -14 -2 4 -27 0 -40 -11 -33 -8 4 -7
9 2 16 11 8 11 9 -1 5 -8 -2 -15 -13 -15 -25 0 -12 -4 -21 -9 -21 -5 0 -13 -5
-18 -13 -6 -9 -7 -5 -3 11 5 16 4 21 -4 17 -13 -8 -30 30 -25 57 2 11 -1 15
-8 11 -7 -4 -8 -3 -4 4 4 6 13 9 21 5 11 -4 13 -1 9 11 -3 9 -9 14 -13 12 -10
-6 -8 41 2 50 4 5 5 0 1 -11 -7 -17 -5 -18 7 -8 9 7 26 14 40 16 20 3 24 10
26 43 1 32 -2 40 -16 41 -9 1 -23 -2 -31 -7z"/>
<path d="M337 1516 c-6 -14 -53 -16 -73 -4 -7 5 -11 -6 -11 -31 0 -36 2 -38
19 -28 10 7 14 13 8 15 -14 5 -12 19 4 25 10 4 12 -3 10 -25 -2 -17 -9 -36
-14 -43 -8 -9 -4 -12 15 -12 21 0 23 2 14 14 -9 11 -9 17 0 26 10 9 15 8 24
-4 11 -14 13 -9 14 32 1 51 -1 58 -10 35z m-3 -34 c3 -5 -1 -9 -9 -9 -8 0 -15
4 -15 9 0 4 4 8 9 8 6 0 12 -4 15 -8z"/>
<path d="M185 1490 c-11 -17 6 -31 28 -25 17 5 19 4 7 -4 -8 -6 -23 -8 -33 -5
-10 3 -20 -1 -23 -11 -4 -10 -9 -13 -13 -6 -4 6 -12 2 -19 -9 -11 -18 -10 -20
10 -17 12 2 25 12 29 23 4 10 8 13 8 6 1 -9 6 -10 20 -2 28 15 33 13 26 -11
-6 -17 -4 -20 6 -13 8 5 20 9 28 9 8 0 17 7 19 15 4 12 3 13 -10 2 -13 -10
-18 -9 -28 3 -10 12 -10 15 1 15 9 1 5 8 -10 20 -26 22 -37 25 -46 10z"/>
<path d="M115 1480 c-3 -5 -1 -10 4 -10 6 0 11 5 11 10 0 6 -2 10 -4 10 -3 0
-8 -4 -11 -10z"/>
<path d="M310 1443 c0 -3 7 -14 15 -23 14 -16 14 -17 -7 -16 -24 2 -48 -10
-48 -25 0 -5 5 -9 11 -9 5 0 7 4 4 10 -3 5 0 7 8 4 8 -3 18 -1 21 5 4 6 13 8
21 4 9 -3 15 1 15 8 0 11 2 11 10 -1 6 -9 5 -20 -3 -29 -10 -12 -9 -14 5 -8
13 5 16 1 12 -18 -4 -24 -4 -24 25 -7 16 9 27 20 24 25 -2 4 -11 3 -18 -3 -15
-13 -27 11 -19 38 5 14 4 15 -5 2 -9 -13 -11 -12 -12 5 -1 11 -1 27 0 35 1 12
-1 11 -9 -2 -6 -9 -17 -15 -25 -12 -8 4 -12 10 -9 15 3 5 0 9 -5 9 -6 0 -11
-3 -11 -7z"/>
<path d="M105 1430 c-3 -5 -1 -19 5 -30 8 -16 8 -22 -3 -26 -7 -2 -14 -11 -14
-19 0 -17 6 -18 27 -5 13 9 13 10 0 10 -12 0 -12 2 -1 9 10 6 10 13 3 28 -8
14 -8 23 0 31 9 9 9 12 1 12 -7 0 -15 -4 -18 -10z"/>
<path d="M180 1419 c-19 -12 -37 -21 -40 -20 -2 0 -4 -10 -5 -24 0 -13 -9 -31
-20 -39 -11 -8 -17 -18 -12 -22 4 -4 7 -1 7 7 1 8 7 3 16 -11 13 -22 14 -23 9
-3 -4 15 0 28 14 40 14 11 17 21 11 29 -7 8 -5 15 5 24 11 9 15 9 15 1 0 -7 5
-9 10 -6 6 4 8 12 4 18 -3 7 1 4 9 -6 14 -17 15 -16 13 7 0 15 -1 26 -1 26 0
0 -16 -10 -35 -21z"/>
<path d="M235 1410 c-6 -10 2 -14 20 -10 5 1 1 -8 -9 -19 -11 -12 -17 -22 -15
-22 2 -1 13 -3 24 -4 11 -2 28 -6 38 -10 10 -4 17 -4 16 1 -3 20 2 26 14 16 9
-8 16 -6 24 7 9 14 8 17 -6 16 -9 -1 -26 -7 -39 -14 -27 -15 -45 -6 -37 19 6
19 -20 36 -30 20z"/>
<path d="M179 1366 l21 -20 21 20 20 21 -41 0 -41 0 20 -21z"/>
<path d="M312 1332 c-1 -22 0 -24 9 -12 8 12 9 11 5 -5 -5 -17 -1 -21 21 -23
26 -2 26 -1 7 13 -19 15 -19 15 1 31 l20 16 -20 -3 c-11 -2 -25 -1 -30 3 -6 4
-12 -5 -13 -20z"/>
<path d="M264 1334 c5 -14 4 -15 -9 -4 -9 7 -18 10 -22 6 -3 -3 0 -6 7 -6 11
0 11 -3 2 -12 -17 -17 -15 -33 3 -18 19 16 40 3 25 -15 -9 -11 -7 -14 9 -12
13 1 19 6 16 14 -14 36 -13 44 2 13 12 -23 25 -35 38 -35 11 0 26 -4 34 -10
12 -8 13 -6 8 8 -4 11 -3 16 3 12 6 -3 10 -1 10 4 0 6 5 10 11 9 6 -2 14 3 17
11 3 9 0 11 -7 7 -7 -4 -23 0 -36 8 -28 18 -35 10 -8 -9 15 -11 15 -13 -5 -24
-16 -8 -22 -8 -22 -1 0 6 -4 9 -10 5 -5 -3 -16 7 -24 23 -17 33 -53 55 -42 26z"/>
<path d="M399 1330 c-7 -5 -10 -12 -6 -17 5 -4 12 -1 16 6 5 7 10 9 12 3 2 -5
15 -13 29 -17 21 -7 22 -6 10 7 -21 20 -45 27 -61 18z"/>
<path d="M196 1311 c-4 -6 -2 -11 4 -11 8 0 8 -6 0 -20 -6 -11 -16 -18 -22
-14 -6 4 -8 -1 -4 -14 5 -14 1 -24 -11 -32 -16 -10 -16 -11 5 -7 15 4 26 -1
32 -14 8 -13 7 -19 0 -19 -6 0 -8 -5 -5 -10 9 -14 28 -1 21 15 -2 7 1 18 7 25
10 10 8 12 -6 7 -10 -4 -16 -3 -12 2 3 5 -1 12 -7 15 -11 5 -11 7 0 12 6 3 10
10 7 15 -4 5 2 6 11 2 12 -4 15 -3 10 5 -5 8 -2 10 9 5 9 -3 13 -9 8 -12 -13
-10 -12 -39 2 -45 10 -3 12 5 10 32 -1 20 2 40 9 44 8 6 8 8 -1 8 -6 0 -15 -5
-19 -11 -5 -8 -13 -4 -24 11 -11 15 -19 19 -24 11z"/>
<path d="M414 1282 c-41 -35 -62 -93 -39 -112 9 -7 12 1 12 31 0 22 5 45 12
52 10 9 11 8 5 -8 -7 -18 -6 -19 10 -6 12 10 14 16 5 21 -8 6 -8 9 0 14 6 4
11 2 11 -5 0 -9 3 -9 14 0 17 15 29 0 20 -24 -6 -15 -4 -16 17 -6 20 10 21 10
9 -1 -14 -12 -14 -15 2 -30 17 -17 18 -16 14 15 -2 17 -4 35 -5 39 -1 7 -55
39 -63 38 -2 -1 -12 -9 -24 -18z"/>
<path d="M140 1260 c-9 -6 -10 -10 -3 -10 6 0 15 5 18 10 8 12 4 12 -15 0z"/>
<path d="M270 1255 c-10 -12 -10 -18 1 -31 11 -14 14 -13 25 8 9 14 13 17 14
8 0 -13 1 -13 10 0 8 12 10 12 10 1 0 -11 3 -11 15 -1 10 9 15 9 15 1 0 -6 -4
-12 -10 -12 -5 -1 -16 -2 -22 -3 -7 0 -14 -10 -16 -21 -3 -17 -1 -18 8 -5 9
12 10 11 5 -8 -4 -12 -3 -22 2 -21 22 4 31 -3 28 -21 -2 -11 0 -20 6 -20 5 0
9 6 9 13 0 8 3 7 9 -3 6 -8 7 -18 5 -22 -3 -4 0 -8 7 -8 7 0 9 -3 6 -7 -4 -3
-2 -12 4 -20 9 -9 8 -13 0 -13 -6 0 -11 6 -11 13 0 8 -4 7 -10 -3 -15 -23 -12
-28 15 -26 14 2 36 -2 49 -9 22 -12 24 -11 23 6 -1 13 -7 17 -19 14 -11 -4
-21 2 -28 15 -14 26 -4 46 15 30 11 -9 14 -7 12 9 -2 24 -2 24 -29 10 -15 -8
-19 -8 -14 0 4 6 2 11 -4 11 -6 0 -4 7 5 16 9 9 14 23 11 31 -3 8 -1 11 4 8 6
-3 10 -1 10 4 0 6 -6 11 -12 11 -9 0 -8 4 2 10 11 7 19 5 31 -9 10 -12 21 -16
29 -11 9 6 7 10 -10 15 -17 6 -21 12 -16 33 4 15 3 22 -1 17 -4 -6 -21 -21
-37 -33 -16 -12 -23 -22 -16 -22 9 0 10 -3 1 -13 -6 -8 -8 -17 -5 -20 3 -3 3
-11 -1 -17 -5 -8 -12 -7 -24 4 -18 16 -21 42 -7 64 11 18 0 29 -26 27 -13 -1
-30 2 -39 6 -11 6 -21 4 -29 -6z m13 -10 c-3 -9 -8 -14 -10 -11 -3 3 -2 9 2
15 9 16 15 13 8 -4z"/>
<path d="M210 1240 c0 -5 5 -10 10 -10 6 0 10 5 10 10 0 6 -4 10 -10 10 -5 0
-10 -4 -10 -10z"/>
<path d="M434 1203 c-1 -27 -8 -47 -19 -56 -6 -5 -2 -6 8 -3 10 3 23 6 28 6 6
0 7 5 4 10 -4 6 -11 7 -17 4 -7 -4 -8 -2 -4 5 4 6 12 9 17 6 13 -9 11 8 -4 29
-12 16 -13 16 -13 -1z"/>
<path d="M227 1203 c-4 -3 0 -17 8 -30 11 -16 12 -23 4 -23 -7 0 -9 -3 -6 -6
4 -4 14 -1 22 6 15 12 15 14 1 22 -8 5 -13 15 -10 23 6 15 -7 21 -19 8z"/>
<path d="M271 1194 c10 -12 9 -13 -7 -8 -10 4 -17 5 -14 3 3 -2 16 -13 29 -24
l24 -20 -7 25 -6 25 13 -25 c13 -28 51 -42 41 -15 -3 8 -10 12 -15 9 -5 -3
-14 5 -20 18 -6 13 -19 25 -30 25 -17 2 -18 -1 -8 -13z"/>
<path d="M524 1201 c7 -11 -4 -15 -39 -11 l-20 2 20 -15 c17 -13 22 -14 36 -1
8 8 19 14 23 14 5 0 -2 -9 -15 -20 -13 -10 -19 -19 -13 -20 5 0 15 5 21 11 8
8 13 7 18 -2 5 -7 4 -10 -1 -6 -5 3 -18 -2 -29 -10 -20 -15 -20 -15 1 -11 26
6 57 -9 48 -24 -4 -6 2 -8 17 -3 13 3 20 3 14 -2 -11 -8 -13 -38 -4 -47 2 -3
10 4 17 14 8 13 9 20 1 20 -5 0 -8 4 -5 8 8 13 -12 37 -31 37 -10 0 -19 6 -19
13 -1 6 -3 15 -4 20 -1 4 -2 10 -1 14 0 4 -9 12 -20 19 -15 8 -19 8 -15 0z"/>
<path d="M465 1160 c3 -5 10 -10 16 -10 5 0 9 5 9 10 0 6 -7 10 -16 10 -8 0
-12 -4 -9 -10z"/>
<path d="M264 1146 c-3 -9 -12 -16 -20 -16 -18 0 -18 -14 1 -30 9 -7 14 -19
11 -27 -3 -7 -2 -13 3 -13 18 0 20 15 6 36 -16 25 -8 38 15 23 21 -13 32 -11
24 4 -5 7 0 6 11 -3 15 -12 17 -12 10 -1 -5 10 -4 12 4 7 6 -4 8 -12 5 -18 -4
-6 2 -8 17 -3 13 3 20 3 14 -2 -14 -11 -17 -33 -5 -33 6 0 11 3 11 8 7 37 4
48 -10 49 -30 2 -63 12 -77 24 -11 9 -15 8 -20 -5z"/>
<path d="M456 1133 c-3 -7 0 -15 6 -19 7 -4 4 -10 -7 -17 -12 -7 -20 -5 -26 4
-5 8 -9 10 -9 4 0 -5 5 -17 10 -25 8 -12 11 -13 19 -1 6 9 11 10 15 2 4 -6 12
-11 18 -11 6 0 5 7 -3 17 -10 11 -10 14 -1 9 6 -4 12 -3 12 3 0 5 -5 11 -12
13 -9 3 -9 6 0 12 7 4 12 2 12 -4 0 -6 4 -8 10 -5 6 4 7 -1 3 -12 -6 -15 -4
-16 9 -6 8 7 17 10 21 7 3 -3 13 -2 22 4 16 8 16 10 1 15 -9 4 -16 2 -16 -4 0
-6 -7 -6 -20 1 -11 6 -18 15 -15 19 3 5 -6 8 -20 7 -14 0 -27 -6 -29 -13z"/>
<path d="M185 1120 c-9 -15 5 -32 21 -26 7 3 20 -2 29 -10 8 -9 15 -11 15 -6
0 9 -43 52 -53 52 -3 0 -9 -4 -12 -10z"/>
<path d="M270 1108 c17 -14 19 -27 7 -45 -12 -18 -23 -16 -46 8 -27 30 -36 6
-9 -26 24 -26 73 -44 66 -23 -2 6 -14 12 -26 13 -33 2 -37 13 -5 14 15 0 39 0
52 1 23 0 23 0 4 18 -10 9 -14 14 -8 10 7 -4 15 -5 18 -1 7 7 11 -12 7 -36 -2
-13 1 -13 17 -1 16 13 16 13 -1 -8 -24 -28 -16 -39 9 -12 17 19 17 21 2 38
-10 10 -14 22 -10 27 5 4 3 5 -3 2 -7 -4 -15 0 -18 9 -3 8 -10 13 -16 9 -5 -3
-20 -1 -32 5 -19 9 -21 9 -8 -2z"/>
<path d="M519 1090 c-1 -3 -1 -9 0 -14 1 -5 -6 -3 -15 5 -10 8 -15 9 -11 2 4
-7 0 -16 -10 -22 -15 -9 -14 -11 10 -8 16 2 33 10 38 18 5 8 9 10 9 4 0 -5 5
-3 11 5 9 13 10 13 6 -2 -7 -21 19 -32 27 -12 9 24 7 31 -4 14 -8 -13 -10 -13
-10 1 0 12 -8 16 -25 15 -14 0 -26 -3 -26 -6z"/>
<path d="M632 1093 c5 -17 -23 -52 -37 -47 -8 4 -15 1 -15 -5 0 -6 5 -11 12
-11 6 0 8 -3 5 -7 -7 -6 11 -33 22 -33 4 0 8 10 8 22 2 18 0 20 -7 8 -5 -8
-10 -10 -10 -5 0 6 4 16 9 23 6 11 10 10 15 -5 7 -16 9 -14 20 12 9 20 10 34
3 43 -10 13 -28 17 -25 5z m22 -28 c-7 -16 -24 -21 -24 -6 0 8 7 13 27 20 1 1
0 -6 -3 -14z"/>
<path d="M527 1053 c-4 -3 -7 -11 -7 -17 0 -6 5 -4 10 4 7 11 10 11 10 2 0 -7
4 -11 9 -7 5 3 13 0 17 -6 5 -8 3 -9 -6 -4 -8 5 -11 3 -8 -6 3 -8 10 -14 16
-14 20 0 21 -11 2 -12 -11 -1 -20 3 -20 9 0 18 -14 -1 -17 -24 -2 -12 -8 -27
-13 -33 -8 -9 -4 -12 15 -12 21 0 23 2 13 14 -10 12 -9 18 7 29 12 9 21 11 23
4 2 -5 8 -8 13 -4 5 3 14 2 21 -2 8 -5 6 -11 -6 -20 -15 -11 -14 -12 7 -10 31
1 29 13 -8 52 -17 18 -36 39 -43 48 -14 17 -25 20 -35 9z"/>
<path d="M292 1030 c2 -17 -1 -24 -11 -22 -10 2 -12 -4 -7 -20 3 -13 6 -27 6
-33 0 -11 20 16 20 28 0 5 -6 5 -12 1 -7 -4 -9 -3 -5 1 13 15 36 14 30 -1 -3
-8 0 -14 7 -14 6 0 8 5 4 12 -4 6 -3 8 4 5 14 -9 43 3 36 14 -6 10 4 12 48 11
24 0 26 2 15 18 -8 14 -14 16 -20 7 -7 -9 -10 -9 -14 0 -3 8 -14 2 -30 -17
-24 -28 -47 -32 -41 -7 2 7 -1 13 -6 14 -5 1 -13 7 -17 15 -6 9 -8 5 -7 -12z"/>
<path d="M500 1042 c0 -7 -4 -11 -9 -7 -13 7 -24 -12 -15 -27 5 -8 11 -6 19 6
11 15 13 15 19 1 6 -17 26 -12 26 6 0 6 -4 8 -9 4 -6 -3 -14 3 -20 12 -6 11
-11 13 -11 5z"/>
<path d="M439 1026 c9 -10 8 -16 -4 -26 -12 -10 -15 -10 -15 1 -1 9 -8 5 -20
-10 -25 -29 -25 -37 -2 -37 9 -1 25 -5 35 -9 13 -5 16 -4 11 9 -3 8 -11 14
-16 13 -6 -1 -13 5 -15 13 -4 13 -3 13 6 0 7 -9 11 -11 11 -3 0 8 11 11 30 8
l29 -3 -21 29 c-12 16 -26 29 -31 29 -5 0 -4 -6 2 -14z"/>
<path d="M376 992 c-6 -18 -11 -20 -56 -24 -29 -3 -25 -19 16 -67 25 -29 40
-39 48 -32 13 11 34 10 53 -2 8 -5 11 -1 10 12 -1 15 -8 18 -33 17 -17 -2 -36
-6 -43 -10 -7 -5 -10 -2 -9 6 2 7 -3 12 -10 10 -8 -1 -11 2 -7 8 3 6 10 8 15
5 10 -6 22 23 15 36 -3 5 -1 18 5 30 7 11 9 23 7 26 -3 2 -8 -4 -11 -15z m-19
-36 c-3 -8 -1 -17 6 -20 7 -2 5 -5 -5 -5 -9 -1 -18 -6 -20 -11 -2 -6 -9 0 -17
12 -13 22 -13 22 4 8 17 -14 18 -13 12 3 -4 11 -3 16 3 12 6 -3 10 -1 10 4 0
6 3 11 6 11 3 0 4 -6 1 -14z"/>
<path d="M499 1009 c0 -2 -2 -14 -5 -27 -3 -20 -2 -21 16 -10 10 7 16 15 12
18 -4 3 -10 9 -14 14 -5 5 -8 7 -9 5z"/>
<path d="M453 953 c5 -13 15 -19 21 -15 6 3 17 7 25 7 8 0 16 7 19 15 3 12 2
12 -8 3 -13 -12 -43 -7 -36 6 3 4 -4 7 -14 7 -15 0 -16 -4 -7 -23z"/>
<path d="M550 961 c0 -5 7 -14 15 -21 8 -7 13 -16 10 -20 -6 -10 24 -22 36
-14 5 3 7 10 3 15 -3 5 -9 7 -14 4 -4 -3 -10 2 -14 10 -3 8 2 18 10 23 12 7 8
9 -15 10 -17 0 -31 -3 -31 -7z"/>
<path d="M400 929 c-14 -4 -20 -8 -15 -8 6 -1 4 -5 -3 -10 -11 -7 39 -8 101
-2 5 1 5 6 1 13 -4 7 -3 8 5 4 6 -4 8 -12 5 -18 -4 -6 1 -8 15 -3 23 7 26 2
11 -25 -7 -13 -6 -19 6 -24 11 -4 14 -1 10 12 -3 9 -1 24 5 32 8 12 9 10 4 -7
-5 -18 -3 -22 9 -17 9 3 13 11 10 16 -4 6 3 5 15 -1 23 -13 29 -23 7 -15 -9 4
-13 -3 -12 -23 1 -21 -4 -28 -17 -27 -10 1 -16 -3 -14 -10 2 -6 13 -10 23 -9
18 1 18 1 1 -12 -12 -8 -14 -15 -8 -20 6 -3 11 -12 10 -18 0 -9 -2 -8 -6 1 -2
6 -9 10 -13 7 -5 -3 -7 -12 -3 -21 8 -22 35 4 28 27 -3 9 -1 20 4 23 6 4 8 13
5 20 -3 8 0 17 5 21 6 3 9 10 6 15 -3 5 -1 11 5 15 17 10 12 21 -16 33 -14 7
-23 16 -20 21 3 4 -7 7 -21 5 -15 -1 -35 2 -44 7 -13 7 -21 5 -28 -8 -6 -10
-11 -13 -11 -7 0 16 -30 22 -60 13z m30 -9 c0 -5 -5 -10 -11 -10 -5 0 -7 5 -4
10 3 6 8 10 11 10 2 0 4 -4 4 -10z"/>
<path d="M462 893 c-6 -3 -9 -9 -6 -14 4 -6 11 -6 19 1 10 8 15 8 21 -1 4 -7
3 -9 -4 -5 -6 3 -13 2 -16 -3 -3 -5 0 -11 8 -14 8 -3 18 4 23 16 9 19 7 22
-11 23 -11 1 -27 -1 -34 -3z"/>
<path d="M390 863 c1 -14 27 -43 33 -37 7 7 -14 44 -25 44 -5 0 -8 -3 -8 -7z"/>
<path d="M420 863 c0 -6 4 -14 10 -18 5 -3 7 -12 4 -19 -5 -12 69 -81 80 -74
3 2 13 -7 21 -19 17 -24 45 -31 45 -12 0 6 -7 9 -15 5 -20 -7 -38 27 -22 44
10 10 7 11 -10 5 -25 -7 -29 1 -12 25 9 13 10 12 5 -2 -3 -12 -1 -15 9 -11 18
6 11 19 -17 34 -17 9 -19 8 -14 -8 3 -10 1 -25 -5 -33 -8 -11 -9 -9 -3 10 6
22 5 23 -10 11 -11 -9 -16 -10 -16 -2 0 7 -4 10 -9 6 -5 -3 -13 0 -17 6 -5 8
-3 9 6 4 9 -6 10 -1 5 16 -3 13 -3 19 2 14 9 -12 115 -17 108 -5 -3 4 -22 8
-42 9 -74 3 -88 5 -95 15 -5 8 -8 7 -8 -1z"/>
<path d="M470 820 c0 -5 5 -10 11 -10 5 0 7 5 4 10 -3 6 -8 10 -11 10 -2 0 -4
-4 -4 -10z"/>
</g>
</svg>
